<svg x="0" y="0" version="1" viewBox="124.23125 1.9888617886178863 701.6581 496.22101626016257" id="svg378" xmlns="http://www.w3.org/2000/svg" style="max-height: 500px" width="701.6581" height="496.22101626016257">
  
    
  
  <rect x="1.9231" y="3.3434" width="991.84" height="475.89" style="fill-rule:evenodd;stroke-width:1pt;fill:#ffc621" id="rect171"/>
  <rect x="0" y="327.29" width="993.18" height="161.97" style="fill-rule:evenodd;stroke-width:1pt;fill:#ef2118" id="rect289"/>
  <rect x="1.9231" y="0" width="991.93" height="172" style="fill-rule:evenodd;stroke-width:1pt;fill:#298c08" id="rect288"/>
  <ellipse cx="534.22" cy="352.97" transform="matrix(.51526 0 0 .51526 204.68 70.667)" ry="199.65" rx="199.65" style="fill-rule:evenodd;stroke-width:1pt;fill:#006bc6" id="path316"/>
  <path d="m434.08 179.85-6.147 4.323 22.45 31.555 5.9925-3.8232-22.295-32.054zm28.102 74.481-9.2283-6.4356 3.8129-12.114-45.987 0.63893-13.309-10.187 62.774-0.68015 11.645-35.27 6.2501 14.262-15.958 49.784zm73.126-67.54-5.977-4.5549-23.295 30.936 5.4514 4.5549 23.82-30.936zm-62.506 49.295 3.344-10.743 12.701-0.0258-14.51-43.637 5.6936-15.772 19.616 59.636 37.135 0.44312-11.702 10.269-52.278-0.17003zm86.646 48.893 2.4938-7.0848-36.594-12.67-2.6587 6.585 36.759 13.17zm-66.108-44.354 11.253-0.11336 3.9211 12.078 37.083-27.201 16.751 0.57709-50.732 36.97 10.98 35.481-13.366-7.9865-15.891-49.805zm-18.874 97.549 7.5125 0.10821 0.34523-38.722-7.0848-0.42767-0.77289 39.041zm20.971-76.8 3.6944 10.635-10.202 7.564 37.609 26.474 4.7919 16.066-51.217-36.3-30.127 21.718 3.308-15.216 42.143-30.941zm-98.683 12.413 2.2208 7.1776 36.934-11.66-1.7931-6.8736-37.362 11.356zm79.515-3.8438-8.9655 6.8066-10.352-7.3528-13.531 43.952-13.788 9.5323 18.658-59.94-29.978-21.924 15.489-1.5664 42.468 30.493z" style="fill-rule:evenodd;stroke-width:1pt;fill:#ffc621" id="path322"/>
  <metadata id="metadata9">
    
      
        image/svg+xml
        
        
        
          
            Openclipart
          
        
      
      
        
        
        
      
    
  </metadata>
</svg>