<?xml version="1.0" encoding="UTF-8"?>
<svg version="1.1" viewBox="0 0 1058 986" width="1058" height="986" xmlns="http://www.w3.org/2000/svg">
<path transform="translate(0)" d="m0 0h1058v986h-1058z" fill="#FBB740"/>
<path transform="translate(0)" d="m0 0h1058v986h-1058zm248 31-16 3-11 4-32 1-25 5-16 6-16 8-12 7-13 10-10 9-11 11-10 13-11 18-9 19-6 18-5 25-2 11 1 499 2 38 4 31 5 23 6 18 12 25 12 19 8 10 9 10 9 9 15 11 14 8 15 6 16 4 16 2h21l22-3 23-6 25-10 22-11 27-16 26-16 101-64 19-12 24-15 11-7 5 2 41 27 17 11 25 16 19 12 21 13 28 17 29 17 25 14 23 12 28 11 24 8 25 6 18 3 10 1h28l21-3 17-5 19-9 14-10 10-9 9-9 11-15 9-16 8-17 10-30 6-29 3-22 1-13v-17l-2 4-6 21-8 18-10 18-10 14-11 13-11 10-15 10-16 8-16 5-11 2-11 1h-14l-24-3-22-6-20-8-16-8-19-10-24-14-26-15-28-17-25-15-21-13-48-30-5-2v-2l5-2 20-12 74-45 26-16 10-6 11 6 22 14 5 1 18-10 27-16-1 31v24l11 8 10 6 6 2h10l6-3 6-7 4-11 2-9 2-26 1-36 1-84 35 18 42 21 19 10 54 27v-429l-3-26-5-22-7-21-8-15-9-12-10-10-14-9-15-6-16-3h-24l-24 4-24 7-27 11-20 10-23 14-18 13-11 9-14 12-8 8-8 7-9 9-8 7-8 8-8 7-9 9-8 7-8 8-8 7-9 9-8 7-8 8-8 7-9 9-8 7-8 8-8 7-3 3-5-1-12-11-8-7-11-10-11-9-7-7-8-7-10-9-8-7-10-9-8-7-10-9-8-7-11-10-11-9-7-7-8-7-10-9-14-12-15-12-24-16-21-12-19-9-24-9-20-6-24-4z" fill="#FCFCFC"/>
<path transform="translate(335,190)" d="m0 0h8l8 3 13 10 25 25 8 7 17 16 10 9 12 11 30 27 8 7 10 9 8 7 10 9 8 7 14 12 12 11 11 9 13 12 11 9 13 12 5 4 4-2 11-10 11-9 13-12 11-9 12-11 8-7 14-12 12-11 8-7 10-9 8-7 11-10 8-7 12-11 8-7 12-11 10-9 13-12 16-15 18-18 10-7 8-3h8l8 5 6 9 4 10 2 10 1 43 2 148v177l-1 36-2 26-4 15-4 8-7 6-3 1h-10l-10-4-10-7-7-5v-24l1-31-24 14-21 12-5-1-24-15-9-5-20 12-13 8-51 31-28 17-21 13h-2v2l5 2 48 30 23 14 26 16 51 30 28 16 24 13 19 8 18 6 18 4 18 2h14l17-2 15-4 17-7 16-10 14-12 10-11 12-17 10-18 8-18 6-21 2-4v17l-3 29-6 31-8 26-8 19-10 19-10 14-11 12-8 8-14 10-17 9-18 6-15 3-10 1h-28l-23-3-22-5-21-6-32-12-27-13-23-13-26-15-28-17-26-16-44-28-20-13-44-29-2-2 20-12h2v-2l-5-2-16-11-43-29-24-16-40-27-5 2-16 9-4-1-20-14-34-24-10-7-1-11v-90l7 4 16 11 80 54 38 25 6 4 6-1 27-16 24-14 26-15 27-16 25-14 13-8 26-15 120-70 26-15 27-16 4-1-1-33-16 10-15 10-17 11-161 105-17 11-8-4-19-12-240-150-3-2v-45l1-61 1-30 3-12 6-12 8-7z" fill="#FB5391"/>
<path transform="translate(161,355)" d="m0 0h31l97 2 25 1 20 12 22 14 216 135 10 6 9-5 27-18 16-10 15-10 112-73 43-28 6-3v34l-23 13-27 16-28 16-27 16-26 15-48 28-26 15-15 9-28 16-27 16-28 16-27 16-17 10-5-1-16-10-43-29-27-18-37-25-16-11-6-4v100l4 2 19 13 18 13 23 16 4 1 19-11 5 2 80 54 45 30v2l-24 14-22 13-24 14-26 15-25 14-22 12-19 9-20 7-21 5-18 2h-14l-17-2-16-4-18-8-14-9-11-9-11-11-12-16-9-15-8-16-6-15-6-24-4-28-2-30z" fill="#7DFDDB"/>
<path transform="translate(189,39)" d="m0 0h31l-4 3-10 6-12 11-9 12-10 21-5 15-5 23-3 28-1 74v123l1 301 2 30 4 28 6 24 10 24 8 14 8 12 11 14 11 11 15 11 15 8 17 6 15 3 11 1h14l18-2 21-5 20-7 25-12 22-12 24-14 18-10 27-16 22-13 2 1-19 12-24 15-66 42-38 24-26 16-25 15-18 10-23 11-20 7-19 5-22 3h-21l-21-3-16-5-14-6-16-10-13-11-12-12-10-13-13-21-11-23-6-18-5-23-4-31-2-38-1-499 6-32 6-19 7-16 8-15 10-14 9-11 15-15 13-10 13-8 16-8 15-6 21-5z" fill="#090D1B"/>
<path transform="translate(908,31)" d="m0 0h24l16 3 15 6 11 7 10 9 8 9 8 13 7 16 6 20 4 22 2 19v429l-72-36-19-10-48-24-12-7-2-176-1-64-1-43-4-16-6-11-5-4-4-2h-8l-10 4-11 9-24 24-8 7-7 7-8 7-15 14-8 7-12 11-8 7-5 1-5-4-7-9-14-19-9-12-8-10-9-12-13-17-4-6 12-11 7-7 8-7 8-8 8-7 9-9 8-7 8-8 8-7 9-9 8-7 13-12 14-11 18-13 20-12 23-12 27-11 24-7z" fill="#F8E73B"/>
<path transform="translate(335,190)" d="m0 0h8l8 3 13 10 25 25 8 7 17 16 10 9 12 11 30 27 8 7 10 9 8 7 10 9 8 7 14 12 12 11 11 9 13 12 11 9 13 12 5 4 4-2 11-10 11-9 13-12 11-9 12-11 8-7 14-12 12-11 8-7 10-9 8-7 11-10 8-7 12-11 8-7 12-11 10-9 13-12 16-15 18-18 10-7 8-3h8l8 5 6 9 4 10 2 10 1 43 2 148v177l-1 36-2 26-4 15-4 8-7 6-3 1h-10l-10-4-10-7-7-5v-24l1-31-24 14-21 12-5-1-32-20v-2l28-17 21-13 23-14 52-32 11-7h2l-1-153-28 16-25 15h-2l-1-32-16 10-15 10-17 11-161 105-17 11-8-4-19-12-240-150-3-2v-45l1-61 1-30 3-12 6-12 8-7z" fill="#070D24"/>
<path transform="translate(868,507)" d="m0 0 78 39 19 10 48 24 6 4v72l-2 30-4 29-7 25-8 19-8 15-10 15-8 10-9 10-13 11-18 11-15 6-15 4-17 2h-14l-24-3-22-6-20-8-16-8-19-10-24-14-26-15-28-17-25-15-21-13-48-30-5-3v-2l25-15 74-45 26-16 10-6 11 6 22 14 5 1 18-10 25-15h2v55l18 12 8 3h10l6-3 6-8 4-13 2-14 1-17 1-36z" fill="#7DFDDB"/>
<path transform="translate(236,33)" d="m0 0h11l2 4 10 13 9 12 12 17 6 7 13 18 11 14 21 28 10 13 11 15 13 17 10 13 16 22v2l2 1-2 1-8-7-21-21-13-9-6-2h-8l-6 3-6 7-5 12-2 9-1 30-2 106h-24l-97-2-32-1v-123l1-74 3-28 5-23 7-20 10-19 9-11 7-7 10-7 14-7z" fill="#FE9F42"/>
<path transform="translate(335,190)" d="m0 0h8l8 3 13 10 25 25 8 7 17 16 10 9 12 11 30 27 8 7 10 9 8 7 10 9 8 7 14 12 12 11 11 9 13 12 11 9 13 12 3 3-2 21-6 90-1 7-11-6-19-12-216-135-19-12v-45l1-61 1-30 3-12 6-12 8-7z" fill="#080D1B"/>
<path transform="translate(591,700)" d="m0 0 6 2 17 11 24 15 26 16 51 31 26 15 24 14 24 13 16 8 20 8 22 6 24 3h14l17-2 15-4 17-7 16-10 14-12 10-11 12-17 10-18 8-18 6-21 2-4v17l-3 29-6 31-8 26-8 19-10 19-10 14-11 12-8 8-14 10-17 9-18 6-15 3-10 1h-28l-23-3-22-5-21-6-32-12-27-13-23-13-26-15-28-17-26-16-44-28-20-13-44-29-2-2 32-19 28-17z" fill="#080D1B"/>
<path transform="translate(317,360)" d="m0 0 12 7 19 12 216 135 18 11 9-5 27-18 16-10 15-10 112-73 43-28 6-3v34l-23 13-27 16-28 16-27 16-26 15-48 28-26 15-15 9-28 16-27 16-28 16-27 16-17 10-5-1-16-10-43-29-27-18-37-25-16-11-7-5v-147l1-7z" fill="#7DFDDB"/>
<path transform="translate(837,190)" d="m0 0h8l8 5 6 9 4 10 2 10 1 43 2 148v177l-1 36-2 26-4 15-4 8-7 6-3 1h-10l-10-4-10-7-7-5v-24l1-31-24 14-21 12-5-1-32-20v-2l28-17 21-13 23-14 52-32 11-7h2l-1-153-28 16-25 15h-2v-33l2-2 1-163-1-6 7-7 10-7z" fill="#080D1B"/>
<path transform="translate(161,158)" d="m0 0 4 4 12 16 16 21 14 19 10 13 15 20 16 21 57 76 5 7v2l-4 1h-17l-97-2-32-1v-123z" fill="#FB5392"/>
<path transform="translate(865,379)" d="m0 0h1v154l-23 14-21 13-23 14-16 10-3-1-1-154 27-16 23-13 27-16z" fill="#E13CA1"/>
<path transform="translate(175,89)" d="m0 0 4 4 15 20 16 21 12 16 16 21 14 19 16 21 12 16 16 21 14 19 4 3v43l-1 45h-7l4-1-6-9-13-17-45-60-16-21-24-32-16-21-14-19-11-14v-2l-3-1v-15l4-27 5-18z" fill="#FE7A66"/>
<path transform="translate(651,201)" d="m0 0 4 2 12 16 13 17 8 10 14 19 9 12 7 9 6 3-5 5-14 13-8 7-10 9-11 9-14 13-8 7-4 3h-2v-2l-3-1v-2l-3-1-6-9-14-18-11-15-7-9-11-15-10-13-12-16-10-13-16-22-6-7-3-6 1-2 13 12 11 9 16 15 8 7 7 6 5-1 8-8 8-7 8-8 8-7 9-9 8-7z" fill="#FBCC3E"/>
<path transform="translate(312,515)" d="m0 0 7 4 16 11 80 54 38 25 8 5-3 3-26 15-24 14-15 9-12 7-4-1-20-14-34-24-10-7-1-11z" fill="#080D1B"/>
<path transform="translate(809,378)" d="m0 0h1v34l-23 13-27 16-28 16-27 16-26 15-48 28-26 15-7 4-5-2-10-7 5-4 15-10 158-103 43-28z" fill="#FBFBFB"/>
<path transform="translate(865,379)" d="m0 0h1v154l-23 14-8 5h-2l-1-152-2-1 23-13z" fill="#CF21BD"/>
<path transform="translate(175,89)" d="m0 0 4 4 15 20 16 21 12 16 16 21 14 19 16 21 12 16 16 21 14 19 4 3v27l-1 7-6-5-9-12-14-19-14-18-14-19-10-13-14-19-14-18-14-19-16-21-18-24-2-1 1-9z" fill="#FE8758"/>
<path transform="translate(829,400)" d="m0 0h3l1 2v151l-19 12-5 2-1-153 7-6z" fill="#D92EAE"/>
<path transform="translate(317,360)" d="m0 0 12 7 1 5 1 6 1 20v103l-1 20-2 5-9-5-8-6v-147l1-7z" fill="#5CB4A7"/>
<path transform="translate(163,143)" d="m0 0 6 5 8 11 13 17 12 16 10 13 8 11 16 21 30 40 16 21 24 32 7 8v20h-7l4-1-6-9-13-17-45-60-16-21-24-32-16-21-14-19-11-14v-2l-3-1v-15z" fill="#FE736E"/>
<path transform="translate(167,115)" d="m0 0 5 3 21 28 16 21 14 19 10 13 30 40 16 21 27 36 6 7 1-6h1v16l-1 7-4-2-30-40-16-21-14-19-10-13-14-19-14-18-24-32-13-18-9-10 1-9z" fill="#FE805F"/>
<path transform="translate(313,616)" d="m0 0 4 2 19 13 18 13 23 16 2 3-21 13-10 6-6 2h-9l-6-3-6-7-4-10-3-19-1-17z" fill="#FBFBFB"/>
<path transform="translate(175,89)" d="m0 0 4 4 15 20 16 21 12 16 16 21 14 19 16 21 12 16 16 21 14 19 4 3v17l-3-1-14-19-32-42-14-19-10-13-24-32-16-21-14-19-10-13-4-5-2-2z" fill="#FF8D50"/>
<path transform="translate(718,623)" d="m0 0 4 1v6l-6 8-10 9-14 10-17 12-19 13-24 16-8 5-8 3-9-1-11-5v-3l22-13 74-45z" fill="#6DDAC2"/>
<path transform="translate(794,420)" d="m0 0 2 1-1 1v154l-10 7-4 1-1-1-1-154z" fill="#E84598"/>
<path transform="translate(865,379)" d="m0 0h1v154h-1v-27l-5-1-4-6-3-21-1-32v-53l1-7z" fill="#A511B7"/>
<path transform="translate(574,537)" d="m0 0 9 1 5 2-3 3-23 13-27 16-28 16-27 16-11 6-1-1 1-8h2l2-4 11-9 28-17 27-16 17-10 15-7z" fill="#64C7B5"/>
<path transform="translate(317,360)" d="m0 0 12 7 1 5 1 6 1 20v103l-1 20-2 5-7-4-1-4 2-6 1-9v-108l-2-12-3-7-6-5v5h-1v-8l1-7z" fill="#64C7B5"/>
<path transform="translate(809,613)" d="m0 0h2v31l-1 10-8 2h-8l-10-4-12-8-4-4v-3l28-16z" fill="#FB756F"/>
<path transform="translate(703,632)" d="m0 0 1 3-6 8-5 4h-2v2l-18 13-28 19-14 9-11 5-10 1-7-2 5-4 84-51z" fill="#5CB4A7"/>
<path transform="translate(317,360)" d="m0 0 12 7 1 5 1 6 1 20v103l-1 20-2 5-3-1 1-13 1-20v-87l-1-19-2-10-3-6-9-5v-4z" fill="#6DDAC2"/>
<path transform="translate(711,627)" d="m0 0h2l-1 7-9 10-15 12-19 13-22 15-15 10-13 6-8 1-10-3v-4l14 1 9-3 12-6 24-16 17-12 11-8 3-1v-2l8-6 4-6 2-4z" fill="#65C8B6"/>
<path transform="translate(574,537)" d="m0 0 9 1 5 2-3 3h-13l-12 5-15 8-28 17-20 12-14 11-3 4-3 6-8 4-1-1 1-8h2l2-4 11-9 28-17 27-16 17-10 15-7z" fill="#6DDAC2"/>
<path transform="translate(573,547)" d="m0 0v3l-23 13-27 16-28 16-4 2 2-5 14-10 28-17 21-12 12-5z" fill="#5CB4A7"/>
<path transform="translate(868,489)" d="m0 0 4 2 14 19 3 4-1 4-20-11z" fill="#FACD3D"/>
<path transform="translate(806,654)" d="m0 0h4v12l-6-1-14-9 4-1h8z" fill="#6EDBC3"/>
<path transform="translate(809,613)" d="m0 0h2v10l-5-2-3-1 1-4z" fill="#70D7C0"/>
</svg>
