<svg version="1.1" id="Layer_1" xmlns="http://www.w3.org/2000/svg" xmlns:xlink="http://www.w3.org/1999/xlink" x="0px" y="0px"
	 width="100%" viewBox="0 0 1058 986" enable-background="new 0 0 1058 986" xml:space="preserve">
<path fill="#FFFFFF" opacity="1.000000" stroke="none" 
	d="
M1.000000,360.000000 
	C1.000000,240.014603 1.000000,120.529205 1.000000,1.021903 
	C353.608978,1.021903 706.217957,1.021903 1058.913452,1.021903 
	C1058.913452,329.568787 1058.913452,658.137634 1058.913452,986.853210 
	C706.333374,986.853210 353.666687,986.853210 1.000000,986.853210 
	C1.000000,778.115295 1.000000,569.307617 1.000000,360.000000 
M539.796082,207.401733 
	C538.850159,206.644165 537.904297,205.886581 536.635071,204.542801 
	C510.663391,181.408905 484.717957,158.245438 458.709076,135.153473 
	C445.530334,123.452698 432.237000,111.881020 418.513428,99.759590 
	C415.033356,96.980438 411.614929,94.119667 408.062622,91.436150 
	C392.035400,79.328674 375.309326,68.334427 356.635376,59.231014 
	C346.783325,54.883492 336.967621,50.450191 327.054047,46.247868 
	C324.528564,45.177330 321.692474,44.839615 318.338257,43.816330 
	C308.542297,41.001690 298.746338,38.187046 288.280212,35.127678 
	C278.850128,34.213028 269.420044,33.298374 259.129211,32.201797 
	C245.858337,32.726013 232.920975,34.851650 219.834778,40.073124 
	C205.313538,38.137329 190.906784,39.406433 176.754959,42.588432 
	C133.716232,52.265556 100.196609,76.089508 75.326584,112.249680 
	C55.509174,141.063522 45.792458,173.501282 44.348213,208.038300 
	C43.215321,235.129822 44.542255,262.322235 44.700550,289.470276 
	C44.851120,315.292511 44.977581,341.115234 44.985741,366.937805 
	C45.017757,468.255249 44.724411,569.573914 45.181831,670.889282 
	C45.304073,697.965332 46.938942,725.091003 49.168903,752.087402 
	C52.327312,790.323792 65.637527,825.072144 88.645081,855.899353 
	C121.345779,899.714111 164.956161,918.569763 219.200531,911.656921 
	C248.552887,907.916260 276.001160,897.585938 301.061890,882.208923 
	C364.629364,843.204529 427.693665,803.380005 491.643951,763.770264 
	C498.099213,760.024963 504.554504,756.279663 511.574371,752.974731 
	C567.951965,790.617126 624.947144,827.286133 683.445679,861.567078 
	C712.924194,878.841858 742.487854,895.883118 775.255188,906.592468 
	C800.429382,914.820129 825.789795,921.734802 852.390503,922.968384 
	C877.479858,924.131897 901.799133,920.924622 924.521729,909.466736 
	C955.222290,893.985901 975.244629,868.718384 989.048767,838.037292 
	C1006.160217,800.005188 1012.602661,759.728882 1013.727478,717.454590 
	C1013.874695,714.805603 1013.944275,712.149719 1014.181519,709.508789 
	C1016.075256,688.426819 1018.725891,667.381348 1019.709534,646.257935 
	C1020.666443,625.709839 1019.925537,605.082703 1019.983154,583.461914 
	C1019.933044,555.974487 1019.882874,528.487061 1019.962219,500.070526 
	C1019.974792,401.460571 1020.034546,302.850586 1019.954651,204.240692 
	C1019.941040,187.436478 1019.879395,170.599258 1018.858337,153.837067 
	C1017.498535,131.515396 1013.582520,109.561699 1004.768005,88.826973 
	C987.915161,49.183224 959.333862,31.785570 919.248718,32.261719 
	C895.377808,32.545273 872.674316,39.100571 850.550842,47.812160 
	C805.530823,65.539764 767.188049,93.144234 732.355042,127.188782 
	C730.343323,129.178650 728.367798,131.206650 726.314270,133.152405 
	C709.529907,149.055695 692.731018,164.943634 675.334351,181.145416 
	C657.457458,198.047958 639.580505,214.950485 621.129578,232.155396 
	C615.039307,237.802078 609.052673,243.565933 602.833252,249.066574 
	C594.581177,256.365112 594.600159,256.167908 586.351624,248.812424 
	C570.983826,235.108429 555.490723,221.544830 540.007996,207.995758 
	C540.007996,207.995758 540.077759,207.948700 539.796082,207.401733 
z"/>
<path fill="#0B0E1C" opacity="1.000000" stroke="none" 
	d="
M490.959442,763.883911 
	C427.693665,803.380005 364.629364,843.204529 301.061890,882.208923 
	C276.001160,897.585938 248.552887,907.916260 219.200531,911.656921 
	C164.956161,918.569763 121.345779,899.714111 88.645081,855.899353 
	C65.637527,825.072144 52.327312,790.323792 49.168903,752.087402 
	C46.938942,725.091003 45.304073,697.965332 45.181831,670.889282 
	C44.724411,569.573914 45.017757,468.255249 44.985741,366.937805 
	C44.977581,341.115234 44.851120,315.292511 44.700550,289.470276 
	C44.542255,262.322235 43.215321,235.129822 44.348213,208.038300 
	C45.792458,173.501282 55.509174,141.063522 75.326584,112.249680 
	C100.196609,76.089508 133.716232,52.265556 176.754959,42.588432 
	C190.906784,39.406433 205.313538,38.137329 220.256927,40.244396 
	C220.679092,40.415668 220.836853,40.542763 220.489288,40.653217 
	C202.162338,49.366329 189.412415,63.050446 180.804932,81.255173 
	C178.557480,86.285378 176.553116,91.056389 174.321365,96.105331 
	C173.052292,100.142044 172.010605,103.900826 170.739563,107.898949 
	C169.720779,111.424881 168.931320,114.711479 168.027832,118.389236 
	C167.397919,121.474693 166.882034,124.168999 166.211975,127.172104 
	C165.808533,129.322510 165.559296,131.164108 165.178192,133.388153 
	C165.008804,135.114975 164.971268,136.459335 164.781784,137.936264 
	C164.434235,138.329437 164.452789,138.573654 164.508774,139.143250 
	C164.287308,139.990265 164.242599,140.495514 164.104568,141.420624 
	C163.726700,145.227234 163.442184,148.613998 163.069916,152.432434 
	C162.710800,156.909882 162.439423,160.955673 162.097260,165.462753 
	C162.055359,170.615616 162.084244,175.307175 162.029327,180.460266 
	C161.958664,186.279251 161.971802,191.636734 161.886871,197.452362 
	C161.853851,202.605698 161.918869,207.300903 161.885544,212.452515 
	C161.852768,217.271103 161.918320,221.633301 161.885406,226.454163 
	C161.852402,231.940384 161.917877,236.967926 161.884674,242.453415 
	C161.851654,247.606445 161.917297,252.301514 161.884048,257.456055 
	C161.850525,263.608551 161.915894,269.301544 161.882050,275.454803 
	C161.849213,283.275330 161.915558,290.635651 161.883514,298.456360 
	C161.850388,307.276459 161.915634,315.636139 161.880905,324.455933 
	C161.871063,335.228912 161.961227,345.541718 161.913239,356.315155 
	C161.758087,437.746796 161.456100,518.719299 161.871384,599.688171 
	C162.026581,629.947937 163.264130,660.235168 165.108841,690.442688 
	C166.543381,713.933716 172.021881,736.773743 182.358765,758.097107 
	C195.001526,784.177124 211.181992,807.589050 235.883545,823.845215 
	C268.757050,845.479187 304.435028,847.887817 341.666443,838.533997 
	C366.887146,832.197693 389.669312,820.309631 412.037231,807.488281 
	C437.977142,792.619446 463.930695,777.774353 490.096741,763.036011 
	C490.618591,763.318665 490.833344,763.562195 490.959442,763.883911 
z"/>
<path fill="#7FFFDE" opacity="1.000000" stroke="none" 
	d="
M1019.930176,584.490234 
	C1019.925537,605.082703 1020.666443,625.709839 1019.709534,646.257935 
	C1018.725891,667.381348 1016.075256,688.426819 1014.181519,709.508789 
	C1013.944275,712.149719 1013.874695,714.805603 1013.246948,718.033325 
	C1006.971313,743.972900 996.721802,767.340698 981.554138,788.521362 
	C955.693909,824.633667 921.089783,844.308960 876.163025,843.638245 
	C846.138306,843.190002 818.143799,834.087341 792.212646,819.626587 
	C754.646057,798.677368 717.554138,776.859802 680.565491,754.897644 
	C656.866333,740.826172 633.717712,725.827271 610.768066,711.182739 
	C615.553284,709.706543 620.110107,708.738647 624.176086,706.761475 
	C629.029663,704.401184 633.637817,701.419739 638.031555,698.261353 
	C642.879761,694.776245 647.364319,690.785278 652.327393,686.969971 
	C653.100769,686.286560 653.554077,685.647827 654.003662,685.004578 
	C654.000000,685.000000 654.006470,685.007324 654.395508,685.006836 
	C655.860352,684.007629 656.936157,683.008911 658.258911,682.008301 
	C658.505981,682.006409 659.000000,682.000000 659.372681,681.998169 
	C661.130371,681.484131 662.688049,681.225769 663.873108,680.419617 
	C673.339294,673.979004 682.865845,667.614502 692.117432,660.874634 
	C702.551758,653.273132 713.096985,645.746338 722.887634,637.362122 
	C731.279663,630.175598 730.838928,629.660889 726.218994,620.061279 
	C726.624084,619.619751 726.830200,619.346863 727.321716,619.019165 
	C728.310730,618.651611 729.014465,618.338867 729.896667,618.330200 
	C741.778503,625.920105 753.481812,633.205872 765.390137,640.708984 
	C776.059814,647.286133 786.524658,653.645996 797.186157,660.279053 
	C801.907166,663.340454 806.431519,666.128723 811.173401,669.184143 
	C817.803284,673.575317 823.955872,678.194580 830.681702,681.720764 
	C844.916321,689.183716 856.327271,685.093994 861.527344,669.874084 
	C864.539185,661.058838 866.265747,651.481567 866.681519,642.162903 
	C867.925354,614.282837 868.348938,586.363220 868.873352,558.454956 
	C869.185730,541.830444 869.085632,525.198242 869.514160,508.695221 
	C884.382385,516.142517 898.907532,523.463989 913.432495,530.785645 
	C937.954895,543.146790 962.477173,555.508057 987.281128,568.084961 
	C998.351868,573.697205 1009.141052,579.093689 1019.930176,584.490234 
z"/>
<path fill="#FAEE3C" opacity="1.000000" stroke="none" 
	d="
M732.958008,126.890167 
	C767.188049,93.144234 805.530823,65.539764 850.550842,47.812160 
	C872.674316,39.100571 895.377808,32.545273 919.248718,32.261719 
	C959.333862,31.785570 987.915161,49.183224 1004.768005,88.826973 
	C1013.582520,109.561699 1017.498535,131.515396 1018.858337,153.837067 
	C1019.879395,170.599258 1019.941040,187.436478 1019.954651,204.240692 
	C1020.034546,302.850586 1019.974792,401.460571 1019.540161,500.529419 
	C1017.994812,500.378632 1016.380005,500.054352 1015.832092,499.110626 
	C1013.233093,494.633942 1008.780396,491.937378 1006.400818,486.814117 
	C1002.919189,479.318085 997.041687,472.834778 991.655823,466.360321 
	C988.344421,462.379852 984.815552,458.927307 982.024902,454.229340 
	C976.241760,444.493469 968.337524,436.031677 961.461548,426.928162 
	C943.514771,403.167633 925.662476,379.335785 907.750916,355.548645 
	C900.094116,345.380188 892.071045,335.469757 884.803467,325.031982 
	C879.660706,317.645874 872.425354,311.564758 870.032227,302.327881 
	C869.783508,301.367859 868.156372,300.764984 867.086426,299.534241 
	C866.644897,275.974152 866.451111,252.871979 865.854370,229.780212 
	C865.571228,218.824524 862.520203,208.482025 856.198975,199.383591 
	C850.398987,191.035461 842.493164,188.230545 833.704102,193.138153 
	C826.203125,197.326523 819.886353,203.635681 812.733276,209.132172 
	C809.414795,212.116394 806.408813,214.975143 803.309631,217.406708 
	C802.875244,214.956955 803.385498,212.358215 799.593323,213.463638 
	C798.601685,213.752716 796.615540,212.207520 795.724792,211.024094 
	C785.784363,197.818146 776.023193,184.477448 766.102356,171.256607 
	C758.966797,161.747513 751.606323,152.407272 744.457336,142.908005 
	C740.505981,137.657700 736.783630,132.235107 732.958008,126.890167 
z"/>
<path fill="#0B0E1C" opacity="1.000000" stroke="none" 
	d="
M610.322327,711.244141 
	C633.717712,725.827271 656.866333,740.826172 680.565491,754.897644 
	C717.554138,776.859802 754.646057,798.677368 792.212646,819.626587 
	C818.143799,834.087341 846.138306,843.190002 876.163025,843.638245 
	C921.089783,844.308960 955.693909,824.633667 981.554138,788.521362 
	C996.721802,767.340698 1006.971313,743.972900 1013.051453,718.472534 
	C1012.602661,759.728882 1006.160217,800.005188 989.048767,838.037292 
	C975.244629,868.718384 955.222290,893.985901 924.521729,909.466736 
	C901.799133,920.924622 877.479858,924.131897 852.390503,922.968384 
	C825.789795,921.734802 800.429382,914.820129 775.255188,906.592468 
	C742.487854,895.883118 712.924194,878.841858 683.445679,861.567078 
	C624.947144,827.286133 567.951965,790.617126 511.213837,752.528137 
	C510.563904,751.713501 510.274536,751.345459 510.213440,750.726074 
	C517.388672,746.180969 524.335571,741.887268 531.641113,737.519897 
	C535.365479,735.375610 538.731201,733.304932 542.441040,731.152527 
	C547.189575,728.344910 551.593994,725.619019 556.336853,722.844421 
	C559.783936,720.827454 562.892517,718.859253 566.339966,716.841309 
	C570.135193,714.570740 573.591553,712.349792 577.395508,710.064819 
	C581.495178,707.603699 585.247375,705.206787 589.326782,702.816162 
	C590.999329,702.170715 592.344543,701.519043 593.986938,701.068848 
	C599.630127,704.594910 604.976257,707.919556 610.322327,711.244141 
z"/>
<path fill="#FBE43D" opacity="1.000000" stroke="none" 
	d="
M867.168762,299.996399 
	C868.156372,300.764984 869.783508,301.367859 870.032227,302.327881 
	C872.425354,311.564758 879.660706,317.645874 884.803467,325.031982 
	C892.071045,335.469757 900.094116,345.380188 907.750916,355.548645 
	C925.662476,379.335785 943.514771,403.167633 961.461548,426.928162 
	C968.337524,436.031677 976.241760,444.493469 982.024902,454.229340 
	C984.815552,458.927307 988.344421,462.379852 991.655823,466.360321 
	C997.041687,472.834778 1002.919189,479.318085 1006.400818,486.814117 
	C1008.780396,491.937378 1013.233093,494.633942 1015.832092,499.110626 
	C1016.380005,500.054352 1017.994812,500.378632 1019.475403,500.993988 
	C1019.882874,528.487061 1019.933044,555.974487 1019.956665,583.976074 
	C1009.141052,579.093689 998.351868,573.697205 987.275757,567.726807 
	C985.993530,565.280823 985.226685,563.236511 983.965576,561.565063 
	C976.300293,551.405701 968.449097,541.386475 960.798035,531.216614 
	C946.977051,512.845459 933.256836,494.398468 919.487366,475.988495 
	C905.930176,457.862244 892.468506,439.662750 878.715271,421.686310 
	C875.917969,418.029999 872.008057,415.224915 868.481079,411.636688 
	C868.218811,397.438110 868.099976,383.630127 867.951172,369.822449 
	C867.700317,346.546997 867.430542,323.271729 867.168762,299.996399 
z"/>
<path fill="#FEB841" opacity="1.000000" stroke="none" 
	d="
M318.999084,44.165192 
	C321.692474,44.839615 324.528564,45.177330 327.054047,46.247868 
	C336.967621,50.450191 346.783325,54.883492 356.841095,59.867966 
	C357.320770,61.434998 357.357697,62.545185 357.906006,63.266819 
	C362.501617,69.315277 367.231049,75.261864 371.845306,81.296387 
	C390.446960,105.623779 409.061493,129.941513 427.595337,154.320511 
	C446.229126,178.830948 464.829437,203.367325 483.334534,227.974960 
	C494.378662,242.661240 505.155701,257.548126 516.152466,272.270386 
	C532.499512,294.155487 548.906494,315.996002 565.342163,337.814667 
	C576.694885,352.885590 588.076904,367.935547 599.590881,382.883118 
	C602.133057,386.183319 605.287598,389.011749 608.016235,392.368652 
	C602.859436,397.118652 597.846680,401.557465 592.457153,405.943237 
	C590.590393,405.640228 589.100403,405.390228 587.445068,405.160278 
	C587.279846,405.180359 586.949158,405.219269 586.795654,404.943298 
	C585.760986,403.779297 584.879761,402.891266 583.999390,401.604126 
	C583.645447,399.632874 583.728088,397.747162 582.863281,396.540344 
	C577.974365,389.718109 572.911438,383.017975 567.809692,376.351318 
	C551.907227,355.570831 535.887024,334.880127 520.057861,314.044220 
	C509.741486,300.464844 499.759735,286.631622 489.481506,273.022827 
	C475.008575,253.859985 460.343018,234.842621 445.868622,215.680862 
	C435.799713,202.351334 426.004547,188.814896 415.923676,175.494522 
	C402.331665,157.534714 388.524567,139.737793 374.917297,121.789406 
	C361.314026,103.846230 347.692566,85.912971 334.386566,67.750099 
	C328.847290,60.188923 324.104218,52.044437 318.999084,44.165192 
z"/>
<path fill="#FEBD41" opacity="1.000000" stroke="none" 
	d="
M608.160217,392.057404 
	C605.287598,389.011749 602.133057,386.183319 599.590881,382.883118 
	C588.076904,367.935547 576.694885,352.885590 565.342163,337.814667 
	C548.906494,315.996002 532.499512,294.155487 516.152466,272.270386 
	C505.155701,257.548126 494.378662,242.661240 483.334534,227.974960 
	C464.829437,203.367325 446.229126,178.830948 427.595337,154.320511 
	C409.061493,129.941513 390.446960,105.623779 371.845306,81.296387 
	C367.231049,75.261864 362.501617,69.315277 357.906006,63.266819 
	C357.357697,62.545185 357.320770,61.434998 357.073090,60.117870 
	C375.309326,68.334427 392.035400,79.328674 408.062622,91.436150 
	C411.614929,94.119667 415.033356,96.980438 418.755798,100.385681 
	C419.928894,103.412163 420.402435,106.145363 421.867004,108.157097 
	C429.467773,118.597618 437.326508,128.850235 445.085632,139.175613 
	C454.531616,151.745728 463.937500,164.346100 473.417450,176.890533 
	C482.096741,188.375504 490.872070,199.787842 499.567810,211.260422 
	C509.971405,224.986145 520.345642,238.734177 530.714172,252.486404 
	C546.753601,273.760345 562.782715,295.042023 578.805969,316.328094 
	C589.659668,330.746765 600.454529,345.209991 611.359924,359.589355 
	C615.843079,365.500671 620.547607,371.244141 625.017029,377.375549 
	C619.308533,382.477234 613.734375,387.267334 608.160217,392.057404 
z"/>
<path fill="#FDC241" opacity="1.000000" stroke="none" 
	d="
M625.151367,377.063965 
	C620.547607,371.244141 615.843079,365.500671 611.359924,359.589355 
	C600.454529,345.209991 589.659668,330.746765 578.805969,316.328094 
	C562.782715,295.042023 546.753601,273.760345 530.714172,252.486404 
	C520.345642,238.734177 509.971405,224.986145 499.567810,211.260422 
	C490.872070,199.787842 482.096741,188.375504 473.417450,176.890533 
	C463.937500,164.346100 454.531616,151.745728 445.085632,139.175613 
	C437.326508,128.850235 429.467773,118.597618 421.867004,108.157097 
	C420.402435,106.145363 419.928894,103.412163 418.996826,100.631378 
	C432.237000,111.881020 445.530334,123.452698 458.709076,135.153473 
	C484.717957,158.245438 510.663391,181.408905 536.819275,205.201050 
	C538.028259,206.555756 539.052979,207.252228 540.077759,207.948700 
	C540.077759,207.948700 540.007996,207.995758 540.017395,208.341156 
	C540.723083,210.533905 541.062378,212.637817 542.175110,214.185867 
	C548.162170,222.515366 554.256531,230.771469 560.472107,238.932312 
	C573.411865,255.921570 586.475708,272.816254 599.442932,289.784576 
	C616.333862,311.887238 633.180542,334.023682 649.908691,356.446869 
	C644.286621,361.562256 638.865784,366.451691 633.289368,371.156891 
	C630.734375,373.312714 627.873535,375.106171 625.151367,377.063965 
z"/>
<path fill="#FBE33D" opacity="1.000000" stroke="none" 
	d="
M732.656494,127.039474 
	C736.783630,132.235107 740.505981,137.657700 744.457336,142.908005 
	C751.606323,152.407272 758.966797,161.747513 766.102356,171.256607 
	C776.023193,184.477448 785.784363,197.818146 795.724792,211.024094 
	C796.615540,212.207520 798.601685,213.752716 799.593323,213.463638 
	C803.385498,212.358215 802.875244,214.956955 803.146973,217.671112 
	C798.264221,222.926071 793.524963,227.570648 788.623657,232.037491 
	C774.255066,245.132507 759.821899,258.156769 745.075684,271.050964 
	C743.552917,269.158234 742.472473,267.340271 741.165710,265.702942 
	C736.124573,259.386780 730.878723,253.230164 725.955444,246.824768 
	C718.420288,237.021149 711.129395,227.030319 703.660950,217.174896 
	C694.459045,205.032043 685.181458,192.946564 675.936584,180.836273 
	C692.731018,164.943634 709.529907,149.055695 726.314270,133.152405 
	C728.367798,131.206650 730.343323,129.178650 732.656494,127.039474 
z"/>
<path fill="#FEB442" opacity="1.000000" stroke="none" 
	d="
M318.668671,43.990761 
	C324.104218,52.044437 328.847290,60.188923 334.386566,67.750099 
	C347.692566,85.912971 361.314026,103.846230 374.917297,121.789406 
	C388.524567,139.737793 402.331665,157.534714 415.923676,175.494522 
	C426.004547,188.814896 435.799713,202.351334 445.868622,215.680862 
	C460.343018,234.842621 475.008575,253.859985 489.481506,273.022827 
	C499.759735,286.631622 509.741486,300.464844 520.057861,314.044220 
	C535.887024,334.880127 551.907227,355.570831 567.809692,376.351318 
	C572.911438,383.017975 577.974365,389.718109 582.863281,396.540344 
	C583.728088,397.747162 583.645447,399.632874 583.677063,401.507477 
	C576.221741,395.565063 569.062561,389.350769 561.962830,383.069397 
	C544.283264,367.427734 526.630676,351.755524 508.977051,335.688141 
	C508.124939,332.857361 507.789276,330.038727 506.314545,328.075806 
	C497.675659,316.576691 488.638367,305.377136 479.985260,293.888397 
	C465.942352,275.243622 452.222321,256.355042 438.122375,237.754044 
	C425.428131,221.007462 412.264771,204.616455 399.572021,187.868759 
	C388.282440,172.972504 377.444550,157.734787 366.244232,142.769821 
	C352.164215,123.957214 337.935822,105.255470 323.737335,86.531776 
	C314.837097,74.794998 305.729462,63.212070 297.009735,51.343475 
	C293.478149,46.536556 288.309570,42.360580 288.950378,35.372406 
	C298.746338,38.187046 308.542297,41.001690 318.668671,43.990761 
z"/>
<path fill="#FCD63F" opacity="1.000000" stroke="none" 
	d="
M675.635498,180.990860 
	C685.181458,192.946564 694.459045,205.032043 703.660950,217.174896 
	C711.129395,227.030319 718.420288,237.021149 725.955444,246.824768 
	C730.878723,253.230164 736.124573,259.386780 741.165710,265.702942 
	C742.472473,267.340271 743.552917,269.158234 744.921021,271.358521 
	C731.745667,283.823517 718.434387,295.877014 705.003418,307.795654 
	C699.821106,312.394562 694.367004,316.687134 688.895081,320.804657 
	C687.686890,319.012207 686.645630,317.515289 685.549805,316.059448 
	C673.611267,300.199158 661.697571,284.319977 649.708557,268.497833 
	C640.423889,256.244781 631.042175,244.065231 621.703613,231.853012 
	C639.580505,214.950485 657.457458,198.047958 675.635498,180.990860 
z"/>
<path fill="#FFAB42" opacity="1.000000" stroke="none" 
	d="
M220.836853,40.542763 
	C220.836853,40.542763 220.679092,40.415668 220.668365,40.314720 
	C232.920975,34.851650 245.858337,32.726013 259.563477,32.653694 
	C260.585480,34.796047 260.799988,36.765045 261.820557,38.132488 
	C269.343842,48.212921 277.079315,58.134598 284.651062,68.179337 
	C301.587280,90.647186 318.486664,113.142876 335.357483,135.659882 
	C340.117310,142.012726 344.612427,148.565521 349.428406,154.874359 
	C358.765411,167.105743 368.284576,179.197983 377.650452,191.407532 
	C384.700867,200.598541 391.579865,209.920959 398.624878,219.116150 
	C408.884674,232.507324 419.342468,245.748932 429.445007,259.256897 
	C431.838318,262.457031 433.154572,266.462708 434.655151,269.966736 
	C414.655151,251.544693 395.026459,233.188339 375.246674,214.996292 
	C367.703278,208.058426 360.099121,201.125092 351.981567,194.894653 
	C346.524689,190.706360 339.864807,189.698212 333.043182,191.925674 
	C325.132599,181.340210 317.211517,171.160889 309.414093,160.887711 
	C293.185944,139.506958 277.023163,118.076614 260.833771,96.666466 
	C252.137405,85.165733 243.259048,73.796547 234.814484,62.113819 
	C229.801788,55.178970 225.473083,47.749722 220.836853,40.542763 
z"/>
<path fill="#FEB042" opacity="1.000000" stroke="none" 
	d="
M434.966248,270.097870 
	C433.154572,266.462708 431.838318,262.457031 429.445007,259.256897 
	C419.342468,245.748932 408.884674,232.507324 398.624878,219.116150 
	C391.579865,209.920959 384.700867,200.598541 377.650452,191.407532 
	C368.284576,179.197983 358.765411,167.105743 349.428406,154.874359 
	C344.612427,148.565521 340.117310,142.012726 335.357483,135.659882 
	C318.486664,113.142876 301.587280,90.647186 284.651062,68.179337 
	C277.079315,58.134598 269.343842,48.212921 261.820557,38.132488 
	C260.799988,36.765045 260.585480,34.796047 259.993835,32.744659 
	C269.420044,33.298374 278.850128,34.213028 288.615295,35.250038 
	C288.309570,42.360580 293.478149,46.536556 297.009735,51.343475 
	C305.729462,63.212070 314.837097,74.794998 323.737335,86.531776 
	C337.935822,105.255470 352.164215,123.957214 366.244232,142.769821 
	C377.444550,157.734787 388.282440,172.972504 399.572021,187.868759 
	C412.264771,204.616455 425.428131,221.007462 438.122375,237.754044 
	C452.222321,256.355042 465.942352,275.243622 479.985260,293.888397 
	C488.638367,305.377136 497.675659,316.576691 506.314545,328.075806 
	C507.789276,330.038727 508.124939,332.857361 508.661163,335.567444 
	C500.874298,329.259613 493.368439,322.714661 485.960846,316.060333 
	C468.937256,300.767792 451.961456,285.422028 434.966248,270.097870 
z"/>
<path fill="#FDC940" opacity="1.000000" stroke="none" 
	d="
M621.416626,232.004211 
	C631.042175,244.065231 640.423889,256.244781 649.708557,268.497833 
	C661.697571,284.319977 673.611267,300.199158 685.549805,316.059448 
	C686.645630,317.515289 687.686890,319.012207 688.818665,321.132996 
	C675.937988,333.232483 662.992126,344.689026 650.046265,356.145599 
	C633.180542,334.023682 616.333862,311.887238 599.442932,289.784576 
	C586.475708,272.816254 573.411865,255.921570 560.472107,238.932312 
	C554.256531,230.771469 548.162170,222.515366 542.175110,214.185867 
	C541.062378,212.637817 540.723083,210.533905 540.038330,208.304657 
	C555.490723,221.544830 570.983826,235.108429 586.351624,248.812424 
	C594.600159,256.167908 594.581177,256.365112 602.833252,249.066574 
	C609.052673,243.565933 615.039307,237.802078 621.416626,232.004211 
z"/>
<path fill="#2A3846" opacity="1.000000" stroke="none" 
	d="
M509.985138,750.977417 
	C510.274536,751.345459 510.563904,751.713501 510.931549,752.307983 
	C504.554504,756.279663 498.099213,760.024963 491.301697,763.827087 
	C490.833344,763.562195 490.618591,763.318665 490.275391,762.745178 
	C496.818817,758.550598 503.401978,754.764038 509.985138,750.977417 
z"/>
<path fill="#FDC940" opacity="1.000000" stroke="none" 
	d="
M539.936890,207.675217 
	C539.052979,207.252228 538.028259,206.555756 536.980957,205.494141 
	C537.904297,205.886581 538.850159,206.644165 539.936890,207.675217 
z"/>
<path fill="#7FFFDE" opacity="1.000000" stroke="none" 
	d="
M510.213440,750.726074 
	C503.401978,754.764038 496.818817,758.550598 490.057007,762.628052 
	C463.930695,777.774353 437.977142,792.619446 412.037231,807.488281 
	C389.669312,820.309631 366.887146,832.197693 341.666443,838.533997 
	C304.435028,847.887817 268.757050,845.479187 235.883545,823.845215 
	C211.181992,807.589050 195.001526,784.177124 182.358765,758.097107 
	C172.021881,736.773743 166.543381,713.933716 165.108841,690.442688 
	C163.264130,660.235168 162.026581,629.947937 161.871384,599.688171 
	C161.456100,518.719299 161.758087,437.746796 162.377151,356.334564 
	C170.652267,355.910828 178.325317,355.928253 186.427185,356.029633 
	C189.159973,356.119781 191.463928,356.126007 194.131317,356.354462 
	C204.661514,356.662598 214.828323,356.748474 225.454407,356.902893 
	C229.941971,356.962006 233.970230,356.952545 238.410858,357.024414 
	C242.215042,357.348267 245.606857,357.590790 249.454987,357.901337 
	C253.607162,357.923950 257.303009,357.878571 261.455200,357.900879 
	C265.606903,357.923553 269.302277,357.878571 273.451660,357.900757 
	C277.269958,357.959900 280.634277,357.951874 284.402588,358.021606 
	C286.448151,358.097198 288.089691,358.095032 290.110107,358.296600 
	C297.966064,358.588989 305.443207,358.677643 313.146240,358.854187 
	C313.372131,358.942047 313.855286,358.981293 313.928925,359.189392 
	C314.002563,359.397491 314.080566,359.831909 314.063965,360.274658 
	C314.044708,362.487457 314.041992,364.257507 314.026489,366.375549 
	C313.704407,367.827515 313.395172,368.931549 313.063538,370.453552 
	C313.370880,373.250092 313.700653,375.628601 314.005188,378.464355 
	C314.001160,382.284943 314.022400,385.648376 314.006897,389.328308 
	C313.956665,390.069397 313.943237,390.493958 313.690826,391.154144 
	C313.422882,392.254456 313.393921,393.119202 313.309448,394.449219 
	C313.253204,401.265015 313.252533,407.615509 313.175751,414.228394 
	C313.119995,414.671783 313.140381,414.852753 313.138855,415.355591 
	C313.131378,416.107056 313.145782,416.536682 313.115356,417.231445 
	C313.095520,417.674133 313.120453,417.851685 313.114929,418.494995 
	C313.062866,450.305267 313.041168,481.649841 312.973755,513.364014 
	C312.943817,514.475891 312.959625,515.218201 312.878754,516.423340 
	C312.875641,537.298828 312.864258,557.712769 313.100769,578.123840 
	C313.250580,591.050110 313.769806,603.972168 314.075806,617.367432 
	C314.396240,627.284729 314.248199,636.788086 315.289703,646.159241 
	C316.179932,654.168884 317.684631,662.279480 320.248260,669.897583 
	C325.067200,684.217712 336.560669,689.143250 349.839783,682.206177 
	C360.367706,676.706238 370.063599,669.613708 380.485718,663.161987 
	C388.095428,659.020752 395.348358,654.945862 402.812195,651.165405 
	C420.973389,663.443115 438.923706,675.426331 457.075745,687.657227 
	C463.465820,691.966431 469.654205,696.028076 476.015076,700.383911 
	C481.062653,703.821960 485.937805,706.965759 490.992126,710.400879 
	C496.024414,713.845337 500.877533,716.998352 505.921997,720.437744 
	C511.369812,724.161987 516.626343,727.599915 521.996887,731.254456 
	C522.326965,731.761963 522.614807,731.885071 523.171753,732.019897 
	C523.533020,732.268555 523.696960,732.337646 524.062622,732.666016 
	C526.603699,734.481445 528.943115,736.037476 531.282471,737.593506 
	C524.335571,741.887268 517.388672,746.180969 510.213440,750.726074 
z"/>
<path fill="#FFA144" opacity="1.000000" stroke="none" 
	d="
M220.489288,40.653221 
	C225.473083,47.749722 229.801788,55.178970 234.814484,62.113819 
	C243.259048,73.796547 252.137405,85.165733 260.833771,96.666466 
	C277.023163,118.076614 293.185944,139.506958 309.414093,160.887711 
	C317.211517,171.160889 325.132599,181.340210 332.844574,192.185318 
	C329.406586,196.428009 325.370575,199.616638 322.995422,203.757843 
	C318.265503,212.004745 316.026154,221.132309 315.943237,230.777771 
	C315.876617,238.519043 315.337585,246.256241 314.661499,253.962784 
	C312.798737,252.682739 310.981567,251.666885 309.814728,250.150558 
	C301.236633,239.003372 292.777802,227.764267 284.301727,216.538757 
	C268.046936,195.011307 251.757858,173.509537 235.572037,151.930344 
	C219.090042,129.956268 202.740189,107.883049 186.248932,85.915970 
	C184.836639,84.034744 182.796509,82.624832 181.048035,80.995979 
	C189.412415,63.050446 202.162338,49.366329 220.489288,40.653221 
z"/>
<path fill="#FF944C" opacity="1.000000" stroke="none" 
	d="
M180.804932,81.255173 
	C182.796509,82.624832 184.836639,84.034744 186.248932,85.915970 
	C202.740189,107.883049 219.090042,129.956268 235.572037,151.930344 
	C251.757858,173.509537 268.046936,195.011307 284.301727,216.538757 
	C292.777802,227.764267 301.236633,239.003372 309.814728,250.150558 
	C310.981567,251.666885 312.798737,252.682739 314.762817,254.422821 
	C315.102600,262.275391 314.994354,269.635468 314.530396,276.989746 
	C312.951569,275.991302 311.487579,275.186218 310.544678,273.975342 
	C304.651428,266.407288 298.822632,258.787506 293.069275,251.112305 
	C277.789825,230.728897 262.617981,210.264648 247.295105,189.914062 
	C227.794037,164.014343 208.245651,138.149689 188.579285,112.375504 
	C184.198212,106.633789 179.240814,101.331833 174.548767,95.827400 
	C176.553116,91.056389 178.557480,86.285378 180.804932,81.255173 
z"/>
<path fill="#FF8D54" opacity="1.000000" stroke="none" 
	d="
M174.321381,96.105331 
	C179.240814,101.331833 184.198212,106.633789 188.579285,112.375504 
	C208.245651,138.149689 227.794037,164.014343 247.295105,189.914062 
	C262.617981,210.264648 277.789825,230.728897 293.069275,251.112305 
	C298.822632,258.787506 304.651428,266.407288 310.544678,273.975342 
	C311.487579,275.186218 312.951569,275.991302 314.611603,277.451843 
	C314.976624,283.279602 314.904724,288.639526 314.496765,293.955322 
	C311.831451,291.388062 309.275116,289.037170 307.209290,286.314148 
	C292.202820,266.533997 277.297394,246.677139 262.355774,226.847748 
	C236.158539,192.080750 209.999573,157.284760 183.714706,122.584167 
	C179.771271,117.378166 175.232361,112.623207 170.968918,107.659607 
	C172.010605,103.900826 173.052292,100.142044 174.321381,96.105331 
z"/>
<path fill="#FF677F" opacity="1.000000" stroke="none" 
	d="
M289.731262,358.092865 
	C288.089691,358.095032 286.448151,358.097198 284.365814,357.672119 
	C283.108582,355.821198 282.435242,354.289551 281.454651,352.989685 
	C257.356140,321.045380 233.189850,289.152100 209.113556,257.191101 
	C195.784058,239.496323 182.652893,221.651962 169.281387,203.989304 
	C167.273178,201.336655 164.437714,199.310287 161.984924,196.994217 
	C161.971802,191.636734 161.958664,186.279251 162.367432,180.502823 
	C164.938080,182.327271 167.336182,184.382156 169.196808,186.843369 
	C186.857864,210.205170 204.417374,233.643692 222.026398,257.044891 
	C241.823975,283.354492 261.650146,309.642639 281.446869,335.952881 
	C286.670410,342.895050 291.831360,349.884338 297.647186,357.692657 
	C294.242004,357.864807 291.986633,357.978851 289.731262,358.092865 
z"/>
<path fill="#FF6E79" opacity="1.000000" stroke="none" 
	d="
M290.110107,358.296600 
	C291.986633,357.978851 294.242004,357.864807 297.647186,357.692657 
	C291.831360,349.884338 286.670410,342.895050 281.446869,335.952881 
	C261.650146,309.642639 241.823975,283.354492 222.026398,257.044891 
	C204.417374,233.643692 186.857864,210.205170 169.196808,186.843369 
	C167.336182,184.382156 164.938080,182.327271 162.451233,180.041321 
	C162.084244,175.307175 162.055359,170.615616 162.433380,165.505981 
	C163.738312,165.789078 164.834106,166.338913 165.504074,167.214569 
	C172.943970,176.938614 180.332260,186.702286 187.706894,196.476089 
	C205.945374,220.648056 224.177933,244.824509 242.397064,269.011047 
	C263.703064,297.295532 285.067261,325.537018 306.162903,353.977600 
	C308.089203,356.574585 309.968750,358.145569 312.920319,358.766327 
	C305.443207,358.677643 297.966064,358.588989 290.110107,358.296600 
z"/>
<path fill="#FF7272" opacity="1.000000" stroke="none" 
	d="
M313.146240,358.854187 
	C309.968750,358.145569 308.089203,356.574585 306.162903,353.977600 
	C285.067261,325.537018 263.703064,297.295532 242.397064,269.011047 
	C224.177933,244.824509 205.945374,220.648056 187.706894,196.476089 
	C180.332260,186.702286 172.943970,176.938614 165.504074,167.214569 
	C164.834106,166.338913 163.738312,165.789078 162.504166,165.044693 
	C162.439423,160.955673 162.710800,156.909882 163.406372,152.476990 
	C164.379196,152.440720 165.082474,152.673523 165.453613,153.159836 
	C172.884705,162.897156 180.296234,172.649582 187.674377,182.427124 
	C205.921448,206.608200 224.176666,230.783234 242.378387,254.998428 
	C263.067261,282.522491 283.659302,310.119507 304.409424,337.597229 
	C307.224091,341.324463 310.712006,344.543304 313.961609,348.450928 
	C313.975067,352.263306 313.915161,355.622284 313.855286,358.981293 
	C313.855286,358.981293 313.372131,358.942047 313.146240,358.854187 
z"/>
<path fill="#FF875A" opacity="1.000000" stroke="none" 
	d="
M170.739563,107.898949 
	C175.232361,112.623207 179.771271,117.378166 183.714706,122.584167 
	C209.999573,157.284760 236.158539,192.080750 262.355774,226.847748 
	C277.297394,246.677139 292.202820,266.533997 307.209290,286.314148 
	C309.275116,289.037170 311.831451,291.388062 314.567688,294.361206 
	C314.859100,295.891602 314.743561,296.972015 314.520386,298.125732 
	C314.232178,298.429352 314.243378,298.657623 314.561401,299.276917 
	C314.592194,302.110596 314.508057,304.551178 314.048859,306.974670 
	C312.515808,306.099304 311.085632,305.450195 310.240875,304.351135 
	C298.648407,289.268982 287.082397,274.165741 275.617035,258.986755 
	C255.178162,231.927704 234.781845,204.836334 214.426254,177.714569 
	C200.921646,159.721054 187.556107,141.623062 174.021408,123.652359 
	C172.406326,121.507942 170.118088,119.870499 168.141876,117.998070 
	C168.931320,114.711479 169.720779,111.424881 170.739563,107.898949 
z"/>
<path fill="#FF786C" opacity="1.000000" stroke="none" 
	d="
M313.888214,347.997528 
	C310.712006,344.543304 307.224091,341.324463 304.409424,337.597229 
	C283.659302,310.119507 263.067261,282.522491 242.378387,254.998428 
	C224.176666,230.783234 205.921448,206.608200 187.674377,182.427124 
	C180.296234,172.649582 172.884705,162.897156 165.453613,153.159836 
	C165.082474,152.673523 164.379196,152.440720 163.494110,152.045319 
	C163.442184,148.613998 163.726700,145.227234 164.436813,141.464325 
	C166.357574,142.375702 168.130997,143.450790 169.302490,144.985397 
	C176.542542,154.469543 183.622482,164.075668 190.801559,173.606659 
	C207.952087,196.375885 225.151535,219.108307 242.287949,241.888138 
	C263.905670,270.625031 285.453491,299.414581 307.119934,328.114594 
	C309.042145,330.660767 311.616211,332.714783 313.968018,335.454956 
	C313.995056,339.940857 313.941620,343.969208 313.888214,347.997528 
z"/>
<path fill="#FF6087" opacity="1.000000" stroke="none" 
	d="
M161.886871,197.452362 
	C164.437714,199.310287 167.273178,201.336655 169.281387,203.989304 
	C182.652893,221.651962 195.784058,239.496323 209.113556,257.191101 
	C233.189850,289.152100 257.356140,321.045380 281.454651,352.989685 
	C282.435242,354.289551 283.108582,355.821198 283.961792,357.594330 
	C280.634277,357.951874 277.269958,357.959900 273.408508,357.562958 
	C265.766602,347.430542 258.704681,337.641022 251.462234,327.986908 
	C225.644699,293.572479 199.820343,259.162781 173.845490,224.867233 
	C170.339249,220.237839 165.959290,216.270172 161.983887,211.996094 
	C161.918869,207.300903 161.853851,202.605698 161.886871,197.452362 
z"/>
<path fill="#FE8260" opacity="1.000000" stroke="none" 
	d="
M168.027832,118.389236 
	C170.118088,119.870499 172.406326,121.507942 174.021408,123.652359 
	C187.556107,141.623062 200.921646,159.721054 214.426254,177.714569 
	C234.781845,204.836334 255.178162,231.927704 275.617035,258.986755 
	C287.082397,274.165741 298.648407,289.268982 310.240875,304.351135 
	C311.085632,305.450195 312.515808,306.099304 314.164276,307.339294 
	C314.441772,311.146515 314.228821,314.572052 313.666992,317.963562 
	C312.149750,316.830719 310.793823,315.873566 309.841003,314.611969 
	C294.279877,294.008362 278.785950,273.354034 263.243866,252.735992 
	C245.114487,228.685730 226.947479,204.663849 208.807602,180.621506 
	C195.946304,163.575333 183.127090,146.497238 170.198883,129.502014 
	C169.306763,128.329239 167.661301,127.729507 166.366165,126.863297 
	C166.882034,124.168999 167.397919,121.474693 168.027832,118.389236 
z"/>
<path fill="#FF5B8C" opacity="1.000000" stroke="none" 
	d="
M161.885544,212.452515 
	C165.959290,216.270172 170.339249,220.237839 173.845490,224.867233 
	C199.820343,259.162781 225.644699,293.572479 251.462234,327.986908 
	C258.704681,337.641022 265.766602,347.430542 272.954498,357.495758 
	C269.302277,357.878571 265.606903,357.923553 261.449219,357.538696 
	C256.916656,351.139313 253.066101,345.005341 248.740494,339.226959 
	C221.250351,302.504150 193.666855,265.851166 166.048828,229.224411 
	C165.040283,227.886871 163.354202,227.060226 161.983887,225.995483 
	C161.918320,221.633301 161.852768,217.271103 161.885544,212.452515 
z"/>
<path fill="#FF5593" opacity="1.000000" stroke="none" 
	d="
M161.885406,226.454163 
	C163.354202,227.060226 165.040283,227.886871 166.048828,229.224411 
	C193.666855,265.851166 221.250351,302.504150 248.740494,339.226959 
	C253.066101,345.005341 256.916656,351.139313 260.992859,357.471039 
	C257.303009,357.878571 253.607162,357.923950 249.449158,357.540283 
	C248.451065,355.737732 248.183807,354.164520 247.335480,353.023193 
	C241.907104,345.720093 236.316544,338.537872 230.843063,331.267914 
	C209.246826,302.583405 187.688828,273.870056 166.046494,245.220398 
	C165.037384,243.884598 163.353165,243.058792 161.983368,241.995453 
	C161.917877,236.967926 161.852402,231.940384 161.885406,226.454163 
z"/>
<path fill="#FF7C67" opacity="1.000000" stroke="none" 
	d="
M313.887512,334.997406 
	C311.616211,332.714783 309.042145,330.660767 307.119934,328.114594 
	C285.453491,299.414581 263.905670,270.625031 242.287949,241.888138 
	C225.151535,219.108307 207.952087,196.375885 190.801559,173.606659 
	C183.622482,164.075668 176.542542,154.469543 169.302490,144.985397 
	C168.130997,143.450790 166.357574,142.375702 164.530151,141.044479 
	C164.242599,140.495514 164.287308,139.990265 164.587402,138.988861 
	C164.923462,138.269684 164.953766,138.040009 164.933731,137.803696 
	C164.971268,136.459335 165.008804,135.114975 165.502792,133.437302 
	C167.185577,134.188385 168.622986,135.110245 169.603745,136.383759 
	C175.658997,144.246445 181.609436,152.189819 187.598267,160.103699 
	C208.663376,187.939911 229.788666,215.730820 250.778778,243.623474 
	C270.276611,269.533173 289.605103,295.570312 309.113037,321.472351 
	C310.269012,323.007202 312.358887,323.838745 314.112030,325.443726 
	C314.102448,328.925751 313.994965,331.961578 313.887512,334.997406 
z"/>
<path fill="#FE42A9" opacity="1.000000" stroke="none" 
	d="
M224.995117,356.834351 
	C214.828323,356.748474 204.661514,356.662598 194.606262,356.306091 
	C198.293198,356.035461 201.868591,356.035461 206.553772,356.035461 
	C205.123291,353.677856 204.413223,352.260254 203.480743,351.008331 
	C191.862396,335.409698 180.263321,319.796021 168.514847,304.295685 
	C166.709381,301.913696 164.177734,300.082092 161.981918,297.995941 
	C161.915558,290.635651 161.849213,283.275330 162.229279,275.490173 
	C165.724014,278.259583 169.105133,281.200409 171.764114,284.691284 
	C184.586044,301.524628 197.272125,318.462555 209.881592,335.456024 
	C215.080582,342.462585 219.966705,349.701263 224.995117,356.834351 
z"/>
<path fill="#FF4AA0" opacity="1.000000" stroke="none" 
	d="
M225.454407,356.902893 
	C219.966705,349.701263 215.080582,342.462585 209.881592,335.456024 
	C197.272125,318.462555 184.586044,301.524628 171.764114,284.691284 
	C169.105133,281.200409 165.724014,278.259583 162.328476,275.029907 
	C161.915894,269.301544 161.850525,263.608551 162.232162,257.491241 
	C164.038147,258.227173 165.663849,259.185608 166.716629,260.577423 
	C186.864136,287.213715 206.990417,313.866455 226.998825,340.607269 
	C230.926804,345.856934 234.345123,351.487976 237.998489,356.943115 
	C233.970230,356.952545 229.941971,356.962006 225.454407,356.902893 
z"/>
<path fill="#FF4F9A" opacity="1.000000" stroke="none" 
	d="
M238.410858,357.024414 
	C234.345123,351.487976 230.926804,345.856934 226.998825,340.607269 
	C206.990417,313.866455 186.864136,287.213715 166.716629,260.577423 
	C165.663849,259.185608 164.038147,258.227173 162.331055,257.031769 
	C161.917297,252.301514 161.851654,247.606445 161.884689,242.453415 
	C163.353165,243.058792 165.037384,243.884598 166.046494,245.220398 
	C187.688828,273.870056 209.246826,302.583405 230.843063,331.267914 
	C236.316544,338.537872 241.907104,345.720093 247.335480,353.023193 
	C248.183807,354.164520 248.451065,355.737732 248.992844,357.472290 
	C245.606857,357.590790 242.215042,357.348267 238.410858,357.024414 
z"/>
<path fill="#FF7F64" opacity="1.000000" stroke="none" 
	d="
M314.014160,324.997559 
	C312.358887,323.838745 310.269012,323.007202 309.113037,321.472351 
	C289.605103,295.570312 270.276611,269.533173 250.778778,243.623474 
	C229.788666,215.730820 208.663376,187.939911 187.598267,160.103699 
	C181.609436,152.189819 175.658997,144.246445 169.603745,136.383759 
	C168.622986,135.110245 167.185577,134.188385 165.634644,133.054840 
	C165.559296,131.164108 165.808533,129.322510 166.211975,127.172104 
	C167.661301,127.729507 169.306763,128.329239 170.198883,129.502014 
	C183.127090,146.497238 195.946304,163.575333 208.807602,180.621506 
	C226.947479,204.663849 245.114487,228.685730 263.243866,252.735992 
	C278.785950,273.354034 294.279877,294.008362 309.841003,314.611969 
	C310.793823,315.873566 312.149750,316.830719 313.764099,318.393311 
	C314.144806,320.903900 314.079498,322.950714 314.014160,324.997559 
z"/>
<path fill="#FF38B5" opacity="1.000000" stroke="none" 
	d="
M161.883514,298.456360 
	C164.177734,300.082092 166.709381,301.913696 168.514847,304.295685 
	C180.263321,319.796021 191.862396,335.409698 203.480743,351.008331 
	C204.413223,352.260254 205.123291,353.677856 206.553772,356.035461 
	C201.868591,356.035461 198.293198,356.035461 194.242859,356.083832 
	C191.463928,356.126007 189.159973,356.119781 186.422897,355.664642 
	C185.553940,354.179199 185.301773,353.007202 184.652924,352.127838 
	C179.768860,345.508575 174.909714,338.865875 169.823318,332.403229 
	C167.461395,329.402222 164.610260,326.786285 161.980896,323.995789 
	C161.915634,315.636139 161.850388,307.276459 161.883514,298.456360 
z"/>
<path fill="#FE2EBF" opacity="1.000000" stroke="none" 
	d="
M161.880905,324.455933 
	C164.610260,326.786285 167.461395,329.402222 169.823318,332.403229 
	C174.909714,338.865875 179.768860,345.508575 184.652924,352.127838 
	C185.301773,353.007202 185.553940,354.179199 185.994080,355.580688 
	C178.325317,355.928253 170.652267,355.910828 162.515289,355.873962 
	C161.961227,345.541718 161.871063,335.228912 161.880905,324.455933 
z"/>
<path fill="#FF786C" opacity="1.000000" stroke="none" 
	d="
M164.781784,137.936264 
	C164.953766,138.040009 164.923462,138.269684 164.764160,138.647079 
	C164.452789,138.573654 164.434235,138.329437 164.781784,137.936264 
z"/>
<path fill="#0B0E1C" opacity="1.000000" stroke="none" 
	d="
M867.086426,299.534241 
	C867.430542,323.271729 867.700317,346.546997 867.951172,369.822449 
	C868.099976,383.630127 868.218811,397.438110 868.356445,412.091705 
	C868.489441,419.903076 868.684326,426.868286 868.732727,433.834473 
	C868.905701,458.745941 869.028931,483.657776 869.171021,508.569458 
	C869.085632,525.198242 869.185730,541.830444 868.873352,558.454956 
	C868.348938,586.363220 867.925354,614.282837 866.681519,642.162903 
	C866.265747,651.481567 864.539185,661.058838 861.527344,669.874084 
	C856.327271,685.093994 844.916321,689.183716 830.681702,681.720764 
	C823.955872,678.194580 817.803284,673.575317 811.216064,668.736511 
	C810.993774,664.686584 810.946472,661.351501 811.014343,657.576904 
	C811.096924,654.423584 811.064392,651.709595 811.134949,648.582520 
	C811.434937,641.437256 811.631775,634.705017 811.887634,627.513123 
	C811.946655,622.814270 811.946655,618.575195 811.946655,613.394653 
	C807.680603,616.140015 804.019043,618.496338 800.029541,620.857666 
	C797.454285,622.236633 795.207092,623.610657 792.616943,625.047485 
	C788.069763,627.676392 783.865540,630.242493 779.328979,632.873901 
	C776.900452,634.236023 774.804382,635.532837 772.362671,636.880920 
	C769.739746,638.118652 767.462463,639.305176 765.185181,640.491699 
	C753.481812,633.205872 741.778503,625.920105 730.105103,618.044678 
	C737.057800,613.122864 743.980530,608.790710 751.192261,604.336304 
	C757.384949,600.511292 763.288574,596.808594 769.529785,593.039429 
	C776.100037,589.091431 782.332642,585.209900 788.881104,581.228516 
	C794.791687,577.644226 800.386292,574.159851 806.295410,570.580566 
	C811.068237,567.642761 815.526550,564.799866 820.323486,561.890015 
	C824.121338,559.586426 827.580627,557.349731 831.383179,555.040771 
	C835.187805,552.761597 838.649231,550.554688 842.450073,548.236572 
	C846.189087,545.993896 849.588684,543.862305 853.309387,541.646240 
	C857.137634,539.388428 860.762695,537.377441 864.091064,534.958313 
	C865.339294,534.051025 866.632568,532.204651 866.651855,530.769653 
	C866.780945,521.195007 866.570923,511.615875 866.587402,501.649628 
	C866.635132,500.189117 866.566345,499.117157 866.614502,497.596863 
	C866.656494,493.467194 866.581604,489.785858 866.637817,485.643860 
	C866.791687,461.234100 866.834534,437.285034 866.821594,413.335968 
	C866.818665,407.860352 866.623413,402.384827 866.602234,396.459198 
	C866.621460,391.991333 866.555115,387.973572 866.585327,383.611664 
	C866.630554,382.559692 866.579224,381.851837 866.598145,380.966034 
	C866.439880,380.857300 866.211365,380.926514 865.628357,381.014709 
	C860.831787,383.679413 856.389648,386.325134 851.607361,389.043518 
	C847.845520,391.170593 844.423767,393.225006 840.679688,395.358826 
	C836.885620,397.581970 833.413818,399.725708 829.595215,401.936676 
	C825.831787,404.033936 822.415222,406.063904 818.659424,408.133881 
	C815.940613,409.445862 813.560974,410.717865 811.135864,411.523865 
	C811.042969,400.418365 810.995544,389.778900 811.162537,378.824585 
	C812.251282,376.543182 813.884216,374.578583 813.889404,372.609772 
	C814.028259,319.644623 814.008240,266.679077 813.960022,213.713608 
	C813.958557,212.144348 813.363831,210.575638 813.045715,209.006683 
	C819.886353,203.635681 826.203125,197.326523 833.704102,193.138153 
	C842.493164,188.230545 850.398987,191.035461 856.198975,199.383591 
	C862.520203,208.482025 865.571228,218.824524 865.854370,229.780212 
	C866.451111,252.871979 866.644897,275.974152 867.086426,299.534241 
z"/>
<path fill="#FBDC3E" opacity="1.000000" stroke="none" 
	d="
M869.514160,508.695221 
	C869.028931,483.657776 868.905701,458.745941 868.732727,433.834473 
	C868.684326,426.868286 868.489441,419.903076 868.486389,412.482422 
	C872.008057,415.224915 875.917969,418.029999 878.715271,421.686310 
	C892.468506,439.662750 905.930176,457.862244 919.487366,475.988495 
	C933.256836,494.398468 946.977051,512.845459 960.798035,531.216614 
	C968.449097,541.386475 976.300293,551.405701 983.965576,561.565063 
	C985.226685,563.236511 985.993530,565.280823 986.994141,567.510986 
	C962.477173,555.508057 937.954895,543.146790 913.432495,530.785645 
	C898.907532,523.463989 884.382385,516.142517 869.514160,508.695221 
z"/>
<path fill="#FB627C" opacity="1.000000" stroke="none" 
	d="
M727.036377,619.074036 
	C726.830200,619.346863 726.624084,619.619751 725.901001,620.130493 
	C723.570435,621.538025 721.756653,622.707703 719.622314,624.001831 
	C716.987061,625.628784 714.672424,627.131409 712.057739,628.735229 
	C709.149414,630.497192 706.541260,632.158020 703.588257,633.899902 
	C699.827026,635.948059 696.410583,637.915222 692.995850,639.421021 
	C692.998413,589.280945 693.014282,539.602234 692.957581,489.923553 
	C692.954590,487.313293 692.335571,484.703766 692.256714,481.855042 
	C703.675903,475.147430 714.841797,468.678650 726.005127,462.665405 
	C726.001770,512.841614 725.987305,562.562317 726.044006,612.282959 
	C726.046570,614.547058 726.690918,616.810364 727.036377,619.074036 
z"/>
<path fill="#F75B83" opacity="1.000000" stroke="none" 
	d="
M727.321716,619.019165 
	C726.690918,616.810364 726.046570,614.547058 726.044006,612.282959 
	C725.987305,562.562317 726.001770,512.841614 726.281250,462.446350 
	C734.033875,457.491699 741.507812,453.211639 748.987549,449.405212 
	C748.995483,499.338348 748.974792,548.797913 749.080505,598.257141 
	C749.084961,600.325562 750.268860,602.391418 750.903259,604.458496 
	C743.980530,608.790710 737.057800,613.122864 729.926636,617.740601 
	C729.014465,618.338867 728.310730,618.651611 727.321716,619.019165 
z"/>
<path fill="#6FDCC4" opacity="1.000000" stroke="none" 
	d="
M712.357788,628.634033 
	C714.672424,627.131409 716.987061,625.628784 719.783447,624.374390 
	C722.326843,630.051941 720.503540,634.746094 716.372437,637.974731 
	C701.428162,649.654114 686.198120,660.967346 671.104919,672.456909 
	C667.017273,675.568726 663.032166,678.815308 659.000000,682.000000 
	C659.000000,682.000000 658.505981,682.006409 657.958618,682.128174 
	C656.276306,683.169128 655.141418,684.088196 654.006470,685.007324 
	C654.006470,685.007324 654.000000,685.000000 653.704712,685.019409 
	C652.937683,685.354187 652.466064,685.669556 651.627197,685.993408 
	C650.227051,686.452637 649.110901,686.773682 648.174194,687.374390 
	C640.114990,692.543335 632.367310,698.276855 623.978088,702.831604 
	C614.349243,708.059265 605.357361,704.169067 597.057861,698.689392 
	C598.165588,697.955627 599.088135,697.476562 600.325317,697.159119 
	C608.331299,702.369019 616.460266,703.299194 624.485779,698.664734 
	C634.094971,693.115601 643.581421,687.296387 652.739441,681.035950 
	C669.283081,669.726929 685.680908,658.190491 701.828125,646.325073 
	C706.016296,643.247559 709.305420,638.789246 712.457092,634.555359 
	C713.390686,633.301147 712.443237,630.646790 712.357788,628.634033 
z"/>
<path fill="#77EED1" opacity="1.000000" stroke="none" 
	d="
M659.372681,681.998169 
	C663.032166,678.815308 667.017273,675.568726 671.104919,672.456909 
	C686.198120,660.967346 701.428162,649.654114 716.372437,637.974731 
	C720.503540,634.746094 722.326843,630.051941 720.104004,624.250000 
	C721.756653,622.707703 723.570435,621.538025 725.702087,620.299194 
	C730.838928,629.660889 731.279663,630.175598 722.887634,637.362122 
	C713.096985,645.746338 702.551758,653.273132 692.117432,660.874634 
	C682.865845,667.614502 673.339294,673.979004 663.873108,680.419617 
	C662.688049,681.225769 661.130371,681.484131 659.372681,681.998169 
z"/>
<path fill="#A9ACB7" opacity="1.000000" stroke="none" 
	d="
M811.031860,648.995667 
	C811.064392,651.709595 811.096924,654.423584 810.595398,657.571777 
	C805.703979,658.672729 801.346741,659.339294 796.989441,660.005859 
	C786.524658,653.645996 776.059814,647.286133 765.390137,640.708984 
	C767.462463,639.305176 769.739746,638.118652 772.689636,637.039917 
	C773.753723,637.453918 774.205322,637.707153 774.527893,638.073853 
	C784.597839,649.522095 795.247559,655.963379 811.031860,648.995667 
z"/>
<path fill="#77ECD0" opacity="1.000000" stroke="none" 
	d="
M596.872620,698.944092 
	C605.357361,704.169067 614.349243,708.059265 623.978088,702.831604 
	C632.367310,698.276855 640.114990,692.543335 648.174194,687.374390 
	C649.110901,686.773682 650.227051,686.452637 651.630127,686.250977 
	C652.002625,686.671570 652.004944,686.843079 652.007324,687.014648 
	C647.364319,690.785278 642.879761,694.776245 638.031555,698.261353 
	C633.637817,701.419739 629.029663,704.401184 624.176086,706.761475 
	C620.110107,708.738647 615.553284,709.706543 610.768066,711.182739 
	C604.976257,707.919556 599.630127,704.594910 594.172058,700.806030 
	C594.997559,699.875977 595.935120,699.410034 596.872620,698.944092 
z"/>
<path fill="#BFC2CA" opacity="1.000000" stroke="none" 
	d="
M797.186157,660.279053 
	C801.346741,659.339294 805.703979,658.672729 810.480225,658.011230 
	C810.946472,661.351501 810.993774,664.686584 810.998535,668.469360 
	C806.431519,666.128723 801.907166,663.340454 797.186157,660.279053 
z"/>
<path fill="#77EED1" opacity="1.000000" stroke="none" 
	d="
M654.395508,685.006836 
	C655.141418,684.088196 656.276306,683.169128 657.711548,682.130127 
	C656.936157,683.008911 655.860352,684.007629 654.395508,685.006836 
z"/>
<path fill="#77EED1" opacity="1.000000" stroke="none" 
	d="
M652.327393,686.969971 
	C652.004944,686.843079 652.002625,686.671570 651.997314,686.242432 
	C652.466064,685.669556 652.937683,685.354187 653.708374,685.023987 
	C653.554077,685.647827 653.100769,686.286560 652.327393,686.969971 
z"/>
<path fill="#090E26" opacity="1.000000" stroke="none" 
	d="
M812.733276,209.132156 
	C813.363831,210.575638 813.958557,212.144348 813.960022,213.713608 
	C814.008240,266.679077 814.028259,319.644623 813.889404,372.609772 
	C813.884216,374.578583 812.251282,376.543182 810.822937,378.843842 
	C759.022888,412.586060 707.761414,445.970551 656.537598,479.412628 
	C632.333496,495.214508 608.201294,511.126678 583.698975,526.924194 
	C581.478943,525.616821 579.596497,524.374146 578.051941,522.908813 
	C579.258301,516.043518 580.453857,509.424042 580.925293,502.753357 
	C581.834961,489.880859 582.316406,476.978424 583.015198,464.090515 
	C583.310608,458.641449 583.692810,453.196838 584.059937,447.751862 
	C585.015808,433.573853 585.985107,419.396729 586.949158,405.219269 
	C586.949158,405.219269 587.279846,405.180359 587.614868,405.454834 
	C589.522400,406.832916 590.993164,409.799194 592.833862,405.996246 
	C597.846680,401.557465 602.859436,397.118652 608.016235,392.368652 
	C613.734375,387.267334 619.308533,382.477234 625.017029,377.375580 
	C627.873535,375.106171 630.734375,373.312714 633.289368,371.156891 
	C638.865784,366.451691 644.286621,361.562256 649.908691,356.446869 
	C662.992126,344.689026 675.937988,333.232483 688.960266,321.447571 
	C694.367004,316.687134 699.821106,312.394562 705.003418,307.795654 
	C718.434387,295.877014 731.745667,283.823517 745.259399,271.516296 
	C759.821899,258.156769 774.255066,245.132507 788.623657,232.037491 
	C793.524963,227.570648 798.264221,222.926071 803.240234,218.098312 
	C806.408813,214.975143 809.414795,212.116394 812.733276,209.132156 
z"/>
<path fill="#FF6875" opacity="1.000000" stroke="none" 
	d="
M597.057861,698.689392 
	C595.935120,699.410034 594.997559,699.875977 593.874878,700.604614 
	C592.344543,701.519043 590.999329,702.170715 589.326904,702.360046 
	C589.001221,648.632935 589.002808,595.368103 589.221252,541.890137 
	C590.056519,541.168579 590.674927,540.660278 591.621582,540.080017 
	C594.002991,538.724121 596.056213,537.440186 598.455322,536.081665 
	C610.449280,529.258545 622.093323,522.502747 633.746704,515.763245 
	C653.162415,504.534607 672.584106,493.316406 692.003357,482.093872 
	C692.335571,484.703766 692.954590,487.313293 692.957581,489.923553 
	C693.014282,539.602234 692.998413,589.280945 692.755127,639.633057 
	C691.334106,641.178833 690.155640,642.051208 688.630615,642.987183 
	C673.936401,651.772705 659.569702,660.463196 645.247498,669.226624 
	C634.059937,676.072021 622.927612,683.007812 611.440735,689.971558 
	C609.073914,691.358826 607.037109,692.677917 604.677734,694.073242 
	C602.907043,695.098816 601.458862,696.048157 600.010742,696.997559 
	C599.088135,697.476562 598.165588,697.955627 597.057861,698.689392 
z"/>
<path fill="#FF42B8" opacity="1.000000" stroke="none" 
	d="
M531.641113,737.519897 
	C528.943115,736.037476 526.603699,734.481445 524.108826,732.212830 
	C524.302124,729.220398 524.952332,726.940979 524.955261,724.660706 
	C525.014771,678.797729 525.029602,632.934570 524.902893,587.071838 
	C524.897156,584.998718 523.475159,582.929504 522.935547,580.588379 
	C528.697083,577.177917 534.235840,574.037476 540.094604,571.132690 
	C540.942993,574.260620 541.925232,577.151672 541.932495,580.045227 
	C542.058350,630.441406 542.064636,680.837830 542.096924,731.234253 
	C538.731201,733.304932 535.365479,735.375610 531.641113,737.519897 
z"/>
<path fill="#FF4BA9" opacity="1.000000" stroke="none" 
	d="
M542.441040,731.152527 
	C542.064636,680.837830 542.058350,630.441406 541.932495,580.045227 
	C541.925232,577.151672 540.942993,574.260620 540.314819,570.863342 
	C544.699585,567.852356 549.183899,565.346375 554.014648,563.108948 
	C554.573975,565.328735 554.971619,567.279968 554.973022,569.231384 
	C555.007385,617.837341 554.984619,666.443237 555.042603,715.049133 
	C555.045715,717.664185 555.665588,720.278503 555.998413,722.893188 
	C551.593994,725.619019 547.189575,728.344910 542.441040,731.152527 
z"/>
<path fill="#FF5F85" opacity="1.000000" stroke="none" 
	d="
M589.004395,542.103333 
	C589.002808,595.368103 589.001221,648.632935 588.999573,702.353760 
	C585.247375,705.206787 581.495178,707.603699 577.380615,709.587830 
	C577.012146,658.476685 577.020752,607.778442 576.955078,557.080200 
	C576.951904,554.649597 576.293396,552.219849 576.109863,549.549683 
	C577.215454,548.617249 578.151367,547.924866 579.426758,547.146362 
	C581.906433,545.743164 584.046753,544.426208 586.485413,543.056885 
	C587.523987,542.704102 588.264160,542.403687 589.004395,542.103333 
z"/>
<path fill="#FF529D" opacity="1.000000" stroke="none" 
	d="
M556.336853,722.844360 
	C555.665588,720.278503 555.045715,717.664185 555.042603,715.049133 
	C554.984619,666.443237 555.007385,617.837341 554.973022,569.231384 
	C554.971619,567.279968 554.573975,565.328735 554.237976,562.836731 
	C558.040344,560.079468 561.965637,557.862854 565.922546,556.136230 
	C565.969788,610.047729 565.985474,663.469360 566.001160,716.890991 
	C562.892517,718.859253 559.783936,720.827454 556.336853,722.844360 
z"/>
<path fill="#FF5892" opacity="1.000000" stroke="none" 
	d="
M566.339966,716.841309 
	C565.985474,663.469360 565.969788,610.047729 566.122253,555.896118 
	C568.255005,553.902649 570.219604,552.639160 572.504883,551.253174 
	C573.863647,550.683716 574.901855,550.236694 575.940063,549.789673 
	C576.293396,552.219849 576.951904,554.649597 576.955078,557.080200 
	C577.020752,607.778442 577.012146,658.476685 577.033081,709.651978 
	C573.591553,712.349792 570.135193,714.570740 566.339966,716.841309 
z"/>
<path fill="#0A0D1B" opacity="1.000000" stroke="none" 
	d="
M586.795654,404.943298 
	C585.985107,419.396729 585.015808,433.573853 584.059937,447.751862 
	C583.692810,453.196838 583.310608,458.641449 583.015198,464.090515 
	C582.316406,476.978424 581.834961,489.880859 580.925293,502.753357 
	C580.453857,509.424042 579.258301,516.043518 577.718445,522.843994 
	C519.012817,486.760712 460.991547,450.498840 402.938232,414.288330 
	C379.687683,399.785889 356.366577,385.396637 332.899902,370.662842 
	C331.048889,369.337738 329.411255,368.241608 327.695343,367.286011 
	C323.175232,364.768707 318.621124,362.312469 314.080566,359.831909 
	C314.080566,359.831909 314.002563,359.397491 313.928894,359.189392 
	C313.915161,355.622284 313.975067,352.263306 313.961609,348.450928 
	C313.941620,343.969208 313.995056,339.940857 313.967987,335.454956 
	C313.994965,331.961578 314.102448,328.925751 314.112061,325.443726 
	C314.079498,322.950714 314.144806,320.903900 314.112976,318.427307 
	C314.228821,314.572052 314.441772,311.146515 314.539337,307.356384 
	C314.508057,304.551178 314.592194,302.110596 314.668030,299.082520 
	C314.659698,298.494965 314.627991,298.052460 314.627991,298.052460 
	C314.743561,296.972015 314.859100,295.891602 314.903748,294.405273 
	C314.904724,288.639526 314.976624,283.279602 314.967285,277.457611 
	C314.994354,269.635468 315.102600,262.275391 315.109497,254.455292 
	C315.337585,246.256241 315.876617,238.519043 315.943237,230.777771 
	C316.026154,221.132309 318.265503,212.004745 322.995422,203.757843 
	C325.370575,199.616638 329.406586,196.428009 332.890076,192.548935 
	C339.864807,189.698212 346.524689,190.706360 351.981567,194.894653 
	C360.099121,201.125092 367.703278,208.058426 375.246674,214.996292 
	C395.026459,233.188339 414.655151,251.544693 434.655151,269.966736 
	C451.961456,285.422028 468.937256,300.767792 485.960846,316.060333 
	C493.368439,322.714661 500.874298,329.259613 508.651367,335.974915 
	C526.630676,351.755524 544.283264,367.427734 561.962830,383.069397 
	C569.062561,389.350769 576.221741,395.565063 583.676147,401.906555 
	C584.879761,402.891266 585.760986,403.779297 586.795654,404.943298 
z"/>
<path fill="#FEB442" opacity="1.000000" stroke="none" 
	d="
M592.457153,405.943237 
	C590.993164,409.799194 589.522400,406.832916 587.780090,405.434784 
	C589.100403,405.390228 590.590393,405.640228 592.457153,405.943237 
z"/>
<path fill="#0B0E1C" opacity="1.000000" stroke="none" 
	d="
M314.123352,616.896118 
	C313.769806,603.972168 313.250580,591.050110 313.100769,578.123840 
	C312.864258,557.712769 312.875641,537.298828 313.191833,516.531616 
	C315.414001,517.343384 317.226440,518.509644 319.285522,519.901306 
	C320.654572,520.816650 321.777008,521.506470 323.057648,522.469727 
	C324.459473,523.534363 325.703125,524.325562 327.086487,525.405701 
	C328.705505,526.501770 330.184875,527.308838 331.852814,528.410400 
	C343.440887,536.435181 354.788940,544.242615 366.249573,551.881165 
	C398.138519,573.135315 430.074219,594.319336 461.755371,615.722046 
	C460.013397,616.978027 458.507507,618.042908 456.658813,619.156189 
	C438.411133,629.760132 420.506226,640.315552 402.601318,650.870972 
	C395.348358,654.945862 388.095428,659.020752 380.179993,662.969543 
	C357.719452,647.527649 335.921417,632.211853 314.123352,616.896118 
z"/>
<path fill="#FF3AC7" opacity="1.000000" stroke="none" 
	d="
M522.712830,580.858459 
	C523.475159,582.929504 524.897156,584.998718 524.902893,587.071838 
	C525.029602,632.934570 525.014771,678.797729 524.955261,724.660706 
	C524.952332,726.940979 524.302124,729.220398 523.907104,731.953491 
	C523.696960,732.337646 523.533020,732.268555 523.043335,731.822388 
	C522.487732,731.210327 522.209473,731.074524 521.882812,731.037903 
	C516.626343,727.599915 511.369812,724.161987 506.292236,720.240173 
	C506.980774,717.937256 507.931183,716.119202 507.935120,714.299011 
	C508.020264,674.781616 508.014221,635.263977 507.957062,595.746460 
	C507.954285,593.815369 507.326385,591.885193 507.190430,589.680176 
	C512.498413,586.556641 517.605591,583.707520 522.712830,580.858459 
z"/>
<path fill="#FDFEFE" opacity="1.000000" stroke="none" 
	d="
M314.075806,617.367432 
	C335.921417,632.211853 357.719452,647.527649 379.823242,663.035889 
	C370.063599,669.613708 360.367706,676.706238 349.839783,682.206177 
	C336.560669,689.143250 325.067200,684.217712 320.248260,669.897583 
	C317.684631,662.279480 316.179932,654.168884 315.289703,646.159241 
	C314.248199,636.788086 314.396240,627.284729 314.075806,617.367432 
z"/>
<path fill="#FD25EB" opacity="1.000000" stroke="none" 
	d="
M402.812195,651.165405 
	C420.506226,640.315552 438.411133,629.760132 456.657837,619.589233 
	C457.333099,628.891418 457.985626,637.811157 457.925659,646.726196 
	C457.834412,660.289062 457.249329,673.848572 456.874023,687.409546 
	C438.923706,675.426331 420.973389,663.443115 402.812195,651.165405 
z"/>
<path fill="#FF34D2" opacity="1.000000" stroke="none" 
	d="
M506.989594,589.954590 
	C507.326385,591.885193 507.954285,593.815369 507.957062,595.746460 
	C508.014221,635.263977 508.020264,674.781616 507.935120,714.299011 
	C507.931183,716.119202 506.980774,717.937256 506.100922,719.953857 
	C500.877533,716.998352 496.024414,713.845337 491.308228,710.140259 
	C491.963409,706.011353 492.952271,702.431213 492.926727,698.858337 
	C492.688110,665.471863 492.275482,632.086609 492.085724,598.466187 
	C493.196228,597.564209 494.134216,596.897217 495.422821,596.148682 
	C499.512115,594.029663 503.250854,591.992126 506.989594,589.954590 
z"/>
<path fill="#FF2FDB" opacity="1.000000" stroke="none" 
	d="
M491.913208,598.701050 
	C492.275482,632.086609 492.688110,665.471863 492.926727,698.858337 
	C492.952271,702.431213 491.963409,706.011353 491.129028,709.848816 
	C485.937805,706.965759 481.062653,703.821960 476.337311,700.100403 
	C476.656525,698.723511 476.973297,697.924500 476.974060,697.125244 
	C477.000854,668.851990 477.012634,640.578796 476.956940,612.305603 
	C476.954102,610.869995 476.333954,609.435608 476.205139,607.733582 
	C478.675537,606.008423 480.942047,604.550293 483.524475,603.051514 
	C484.888611,602.321228 485.936859,601.631531 487.314026,600.855957 
	C489.066345,600.080505 490.489777,599.390747 491.913208,598.701050 
z"/>
<path fill="#FE2AE3" opacity="1.000000" stroke="none" 
	d="
M476.001221,608.000610 
	C476.333954,609.435608 476.954102,610.869995 476.956940,612.305603 
	C477.012634,640.578796 477.000854,668.851990 476.974060,697.125244 
	C476.973297,697.924500 476.656525,698.723511 476.164856,699.806152 
	C469.654205,696.028076 463.465820,691.966431 457.075714,687.657227 
	C457.249329,673.848572 457.834412,660.289062 457.925659,646.726196 
	C457.985626,637.811157 457.333099,628.891418 457.000610,619.540771 
	C458.507507,618.042908 460.013397,616.978027 462.079224,615.612305 
	C463.443329,614.577820 464.247498,613.844116 465.414368,613.082031 
	C468.575073,611.530457 471.373138,610.007202 474.471497,608.380615 
	C475.181580,608.185120 475.591400,608.092896 476.001221,608.000610 
z"/>
<path fill="#71E0C7" opacity="1.000000" stroke="none" 
	d="
M331.664215,528.115967 
	C330.184875,527.308838 328.705505,526.501770 327.111359,525.000549 
	C327.997253,516.492310 329.632294,508.696899 329.864166,500.859985 
	C330.321289,485.412415 330.123291,469.940674 329.971924,454.481079 
	C329.753357,432.157684 329.952911,409.803314 328.766998,387.526428 
	C328.072632,374.483154 325.264069,367.921112 314.039307,366.027588 
	C314.041992,364.257507 314.044708,362.487457 314.063965,360.274658 
	C318.621124,362.312469 323.175232,364.768707 327.695343,367.286011 
	C329.411255,368.241608 331.048889,369.337738 332.627808,370.909485 
	C333.018341,377.340942 333.905823,383.231476 333.923492,389.124634 
	C334.045990,430.010132 334.073761,470.896606 333.884369,511.781586 
	C333.859131,517.229675 332.438599,522.671326 331.664215,528.115967 
z"/>
<path fill="#529B95" opacity="1.000000" stroke="none" 
	d="
M313.929810,390.918549 
	C313.943237,390.493958 313.956665,390.069397 314.361328,389.386169 
	C315.829071,391.445435 317.649872,393.699554 317.855103,396.092224 
	C318.814056,407.273346 319.627625,418.484863 319.921204,429.700500 
	C320.260071,442.645172 320.080688,455.606323 319.955536,468.558655 
	C319.912628,473.002350 319.310425,477.438385 319.042145,481.882660 
	C318.569427,489.712860 318.513916,497.592194 317.524506,505.354156 
	C317.181030,508.048553 314.586090,510.455933 313.019501,512.994385 
	C313.041168,481.649841 313.062866,450.305267 313.256622,418.390442 
	C313.479095,417.714508 313.599609,417.571472 313.566895,417.509979 
	C313.461823,417.312531 313.300110,417.145203 313.160217,416.966278 
	C313.145782,416.536682 313.131378,416.107056 313.277527,415.254395 
	C313.491364,414.730682 313.612366,414.603424 313.585236,414.534485 
	C313.505737,414.332550 313.367249,414.153809 313.251862,413.966003 
	C313.252533,407.615509 313.253204,401.265015 313.502777,394.199188 
	C313.811066,392.628754 313.870422,391.773651 313.929810,390.918549 
z"/>
<path fill="#58AAA0" opacity="1.000000" stroke="none" 
	d="
M312.973755,513.364014 
	C314.586090,510.455933 317.181030,508.048553 317.524506,505.354156 
	C318.513916,497.592194 318.569427,489.712860 319.042145,481.882660 
	C319.310425,477.438385 319.912628,473.002350 319.955536,468.558655 
	C320.080688,455.606323 320.260071,442.645172 319.921204,429.700500 
	C319.627625,418.484863 318.814056,407.273346 317.855103,396.092224 
	C317.649872,393.699554 315.829071,391.445435 314.398102,389.069641 
	C314.022400,385.648376 314.001160,382.284943 314.371765,378.468628 
	C316.207764,379.634644 318.548370,381.060852 318.944733,382.904938 
	C320.911011,392.053589 323.525391,401.281219 323.774017,410.538483 
	C324.435211,435.158051 323.988464,459.807098 324.003143,484.444427 
	C324.010254,496.425568 322.738556,508.220123 319.038879,519.675842 
	C317.226440,518.509644 315.414001,517.343384 313.288513,516.068848 
	C312.959625,515.218201 312.943817,514.475891 312.973755,513.364014 
z"/>
<path fill="#60BBAD" opacity="1.000000" stroke="none" 
	d="
M319.285522,519.901306 
	C322.738556,508.220123 324.010254,496.425568 324.003143,484.444427 
	C323.988464,459.807098 324.435211,435.158051 323.774017,410.538483 
	C323.525391,401.281219 320.911011,392.053589 318.944733,382.904938 
	C318.548370,381.060852 316.207764,379.634644 314.397003,378.011444 
	C313.700653,375.628601 313.370880,373.250092 313.407593,370.482178 
	C319.860718,372.480621 323.377075,376.934723 324.240997,383.390381 
	C325.224396,390.738831 326.585358,398.083496 326.882568,405.466034 
	C327.331085,416.605896 326.913239,427.778168 327.042816,438.934570 
	C327.094604,443.390930 327.984894,447.851196 327.869110,452.293396 
	C327.463104,467.869476 326.208923,483.447296 326.447113,499.006531 
	C326.571350,507.122711 324.944366,514.601990 322.899445,522.196289 
	C321.777008,521.506470 320.654572,520.816650 319.285522,519.901306 
z"/>
<path fill="#67CBB8" opacity="1.000000" stroke="none" 
	d="
M323.057648,522.469727 
	C324.944366,514.601990 326.571350,507.122711 326.447113,499.006531 
	C326.208923,483.447296 327.463104,467.869476 327.869110,452.293396 
	C327.984894,447.851196 327.094604,443.390930 327.042816,438.934570 
	C326.913239,427.778168 327.331085,416.605896 326.882568,405.466034 
	C326.585358,398.083496 325.224396,390.738831 324.240997,383.390381 
	C323.377075,376.934723 319.860718,372.480621 313.429962,370.064209 
	C313.395172,368.931549 313.704407,367.827515 314.026489,366.375549 
	C325.264069,367.921112 328.072632,374.483154 328.766998,387.526428 
	C329.952911,409.803314 329.753357,432.157684 329.971924,454.481079 
	C330.123291,469.940674 330.321289,485.412415 329.864166,500.859985 
	C329.632294,508.696899 327.997253,516.492310 326.971680,524.711609 
	C325.703125,524.325562 324.459473,523.534363 323.057648,522.469727 
z"/>
<path fill="#64B8AC" opacity="1.000000" stroke="none" 
	d="
M313.690826,391.154144 
	C313.870422,391.773651 313.811066,392.628754 313.558350,393.733887 
	C313.393921,393.119202 313.422882,392.254456 313.690826,391.154144 
z"/>
<path fill="#64B8AC" opacity="1.000000" stroke="none" 
	d="
M313.115387,417.231445 
	C313.300110,417.145203 313.461823,417.312531 313.566895,417.509979 
	C313.599609,417.571472 313.479095,417.714508 313.287048,417.924713 
	C313.120453,417.851685 313.095520,417.674133 313.115387,417.231445 
z"/>
<path fill="#64B8AC" opacity="1.000000" stroke="none" 
	d="
M313.175751,414.228394 
	C313.367249,414.153809 313.505737,414.332550 313.585236,414.534485 
	C313.612366,414.603424 313.491364,414.730682 313.299377,414.932526 
	C313.140381,414.852753 313.119995,414.671783 313.175751,414.228394 
z"/>
<path fill="#FF42B8" opacity="1.000000" stroke="none" 
	d="
M521.996887,731.254456 
	C522.209473,731.074524 522.487732,731.210327 522.845947,731.642822 
	C522.614807,731.885071 522.326965,731.761963 521.996887,731.254456 
z"/>
<path fill="#FE8260" opacity="1.000000" stroke="none" 
	d="
M314.520386,298.125732 
	C314.627991,298.052460 314.659698,298.494965 314.553040,298.689392 
	C314.243378,298.657623 314.232178,298.429352 314.520386,298.125732 
z"/>
<path fill="#FEFDFD" opacity="1.000000" stroke="none" 
	d="
M692.256714,481.855042 
	C672.584106,493.316406 653.162415,504.534607 633.746704,515.763245 
	C622.093323,522.502747 610.449280,529.258545 598.142822,535.912537 
	C593.001892,532.875000 588.519226,529.931946 584.036560,526.988892 
	C608.201294,511.126678 632.333496,495.214508 656.537598,479.412628 
	C707.761414,445.970551 759.022888,412.586060 810.608521,379.158691 
	C810.995544,389.778900 811.042969,400.418365 810.922852,411.785828 
	C808.840149,413.741547 806.925049,414.969269 804.679688,416.270996 
	C798.547241,419.833984 792.745117,423.322968 786.595337,426.888489 
	C780.153198,430.599609 774.058594,434.234161 767.616394,437.934387 
	C761.173096,441.643921 755.077454,445.287750 748.981812,448.931580 
	C741.507812,453.211639 734.033875,457.491699 726.283813,461.990845 
	C714.841797,468.678650 703.675903,475.147430 692.256714,481.855042 
z"/>
<path fill="#F2558A" opacity="1.000000" stroke="none" 
	d="
M748.987549,449.405212 
	C755.077454,445.287750 761.173096,441.643921 767.627563,438.413086 
	C767.990967,488.225739 767.981384,537.625366 768.050415,587.024963 
	C768.053284,589.052429 768.794800,591.078918 769.192200,593.105835 
	C763.288574,596.808594 757.384949,600.511292 751.192261,604.336304 
	C750.268860,602.391418 749.084961,600.325562 749.080505,598.257141 
	C748.974792,548.797913 748.995483,499.338348 748.987549,449.405212 
z"/>
<path fill="#ED4C93" opacity="1.000000" stroke="none" 
	d="
M769.529785,593.039368 
	C768.794800,591.078918 768.053284,589.052429 768.050415,587.024963 
	C767.981384,537.625366 767.990967,488.225739 767.975220,438.347412 
	C774.058594,434.234161 780.153198,430.599609 786.612976,427.371460 
	C786.985474,476.830353 786.973083,525.882874 787.066223,574.935181 
	C787.070312,577.067200 788.043457,579.197327 788.565186,581.328369 
	C782.332642,585.209900 776.100037,589.091431 769.529785,593.039368 
z"/>
<path fill="#E6429E" opacity="1.000000" stroke="none" 
	d="
M788.881104,581.228516 
	C788.043457,579.197327 787.070312,577.067200 787.066223,574.935181 
	C786.973083,525.882874 786.985474,476.830353 786.960571,427.294922 
	C792.745117,423.322968 798.547241,419.833984 804.677246,416.725220 
	C805.003357,466.016174 804.988525,514.926880 805.041565,563.837524 
	C805.044006,566.117188 805.653870,568.396118 805.980835,570.675415 
	C800.386292,574.159851 794.791687,577.644226 788.881104,581.228516 
z"/>
<path fill="#DF37A9" opacity="1.000000" stroke="none" 
	d="
M806.295410,570.580566 
	C805.653870,568.396118 805.044006,566.117188 805.041565,563.837524 
	C804.988525,514.926880 805.003357,466.016174 805.007507,416.651245 
	C806.925049,414.969269 808.840149,413.741547 810.968262,412.251862 
	C813.560974,410.717865 815.940613,409.445862 818.660095,408.577454 
	C819.328308,459.973053 819.656616,510.965027 819.984924,561.957031 
	C815.526550,564.799866 811.068237,567.642761 806.295410,570.580566 
z"/>
<path fill="#CC1CC6" opacity="1.000000" stroke="none" 
	d="
M852.988220,541.730713 
	C849.588684,543.862305 846.189087,545.993896 842.381165,547.796143 
	C841.648560,545.017822 841.044189,542.569214 841.041382,540.119934 
	C840.986511,491.839844 841.001404,443.559662 841.002075,395.279449 
	C844.423767,393.225006 847.845520,391.170593 851.894653,389.293701 
	C852.353699,391.063660 852.042297,392.655762 852.039001,394.248505 
	C852.005432,410.680054 851.897217,427.112946 852.063354,443.542908 
	C852.196350,456.693665 852.679565,469.840851 852.995117,483.413391 
	C852.744019,502.346344 852.495728,520.855469 852.297852,539.365173 
	C852.289429,540.151123 852.747498,540.942078 852.988220,541.730713 
z"/>
<path fill="#D82EB2" opacity="1.000000" stroke="none" 
	d="
M820.323486,561.890076 
	C819.656616,510.965027 819.328308,459.973053 818.999329,408.537476 
	C822.415222,406.063904 825.831787,404.033936 829.764282,402.329834 
	C830.520203,404.774353 830.967285,406.892700 830.969604,409.011536 
	C831.022339,457.712006 831.026611,506.412537 831.039978,555.113037 
	C827.580627,557.349731 824.121338,559.586426 820.323486,561.890076 
z"/>
<path fill="#D325BB" opacity="1.000000" stroke="none" 
	d="
M831.383179,555.040771 
	C831.026611,506.412537 831.022339,457.712006 830.969604,409.011536 
	C830.967285,406.892700 830.520203,404.774353 830.111206,402.262573 
	C833.413818,399.725708 836.885620,397.581970 840.679688,395.358856 
	C841.001404,443.559662 840.986511,491.839844 841.041382,540.119934 
	C841.044189,542.569214 841.648560,545.017822 842.041748,547.907227 
	C838.649231,550.554688 835.187805,552.761597 831.383179,555.040771 
z"/>
<path fill="#A312B6" opacity="1.000000" stroke="none" 
	d="
M866.506653,486.104553 
	C866.581604,489.785858 866.656494,493.467194 866.279785,497.580994 
	C861.300781,496.442291 859.459839,492.681305 859.070801,488.461426 
	C857.555359,472.023346 855.819153,455.578308 855.171326,439.096344 
	C854.670898,426.364624 855.286377,413.547424 856.159180,400.819885 
	C856.640503,393.800171 858.040466,386.492310 866.488770,383.955780 
	C866.555115,387.973572 866.621460,391.991333 866.287598,396.548401 
	C864.624817,399.159790 862.498230,401.131683 862.244202,403.320831 
	C860.916443,414.766388 859.234192,426.269409 859.266052,437.748047 
	C859.302063,450.732422 860.840576,463.730621 862.139893,476.681274 
	C862.478638,480.057159 861.462219,484.660828 866.506653,486.104553 
z"/>
<path fill="#C311CF" opacity="1.000000" stroke="none" 
	d="
M853.309387,541.646240 
	C852.747498,540.942078 852.289429,540.151123 852.297852,539.365173 
	C852.495728,520.855469 852.744019,502.346344 853.385254,483.504639 
	C854.192688,485.298981 854.618469,487.422058 854.999329,489.553192 
	C856.743591,499.312225 854.972473,502.560211 866.471069,502.038177 
	C866.570923,511.615875 866.780945,521.195007 866.651855,530.769653 
	C866.632568,532.204651 865.339294,534.051025 864.091064,534.958313 
	C860.762695,537.377441 857.137634,539.388428 853.309387,541.646240 
z"/>
<path fill="#82119D" opacity="1.000000" stroke="none" 
	d="
M866.637817,485.643860 
	C861.462219,484.660828 862.478638,480.057159 862.139893,476.681274 
	C860.840576,463.730621 859.302063,450.732422 859.266052,437.748047 
	C859.234192,426.269409 860.916443,414.766388 862.244202,403.320831 
	C862.498230,401.131683 864.624817,399.159790 866.202026,396.998474 
	C866.623413,402.384827 866.818665,407.860352 866.821594,413.335968 
	C866.834534,437.285034 866.791687,461.234100 866.637817,485.643860 
z"/>
<path fill="#9B9DAA" opacity="1.000000" stroke="none" 
	d="
M811.134949,648.582520 
	C795.247559,655.963379 784.597839,649.522095 774.527893,638.073853 
	C774.205322,637.707153 773.753723,637.453918 773.035278,636.988770 
	C774.804382,635.532837 776.900452,634.236023 779.639404,633.062073 
	C783.559204,639.349670 788.322937,643.973938 795.443542,644.447998 
	C798.474854,644.649780 802.281494,643.185547 804.626099,641.180664 
	C807.514954,638.710510 805.888916,635.135437 803.433289,632.924255 
	C800.189270,630.003296 796.473083,627.606689 792.959900,624.984680 
	C795.207092,623.610657 797.454285,622.236633 800.405945,620.967407 
	C804.683167,623.372437 808.255920,625.672607 811.828613,627.972839 
	C811.631775,634.705017 811.434937,641.437256 811.134949,648.582520 
z"/>
<path fill="#B814C2" opacity="1.000000" stroke="none" 
	d="
M866.587463,501.649628 
	C854.972473,502.560211 856.743591,499.312225 854.999329,489.553192 
	C854.618469,487.422058 854.192688,485.298981 853.397461,483.080902 
	C852.679565,469.840851 852.196350,456.693665 852.063354,443.542908 
	C851.897217,427.112946 852.005432,410.680054 852.039001,394.248505 
	C852.042297,392.655762 852.353699,391.063660 852.234741,389.221069 
	C856.389648,386.325134 860.831787,383.679413 865.754883,381.087921 
	C866.235840,381.142151 866.527893,381.143982 866.527893,381.143982 
	C866.579224,381.851837 866.630554,382.559692 866.585327,383.611664 
	C858.040466,386.492310 856.640503,393.800171 856.159180,400.819885 
	C855.286377,413.547424 854.670898,426.364624 855.171326,439.096344 
	C855.819153,455.578308 857.555359,472.023346 859.070801,488.461426 
	C859.459839,492.681305 861.300781,496.442291 866.162842,498.029358 
	C866.566345,499.117157 866.635132,500.189117 866.587463,501.649628 
z"/>
<path fill="#9496A3" opacity="1.000000" stroke="none" 
	d="
M792.616943,625.047485 
	C796.473083,627.606689 800.189270,630.003296 803.433289,632.924255 
	C805.888916,635.135437 807.514954,638.710510 804.626099,641.180664 
	C802.281494,643.185547 798.474854,644.649780 795.443542,644.447998 
	C788.322937,643.973938 783.559204,639.349670 779.971741,632.996826 
	C783.865540,630.242493 788.069763,627.676392 792.616943,625.047485 
z"/>
<path fill="#B1B3BD" opacity="1.000000" stroke="none" 
	d="
M811.887695,627.513123 
	C808.255920,625.672607 804.683167,623.372437 800.734009,620.962402 
	C804.019043,618.496338 807.680603,616.140015 811.946655,613.394653 
	C811.946655,618.575195 811.946655,622.814270 811.887695,627.513123 
z"/>
<path fill="#82119D" opacity="1.000000" stroke="none" 
	d="
M866.598145,380.966034 
	C866.527893,381.143982 866.235840,381.142151 866.109314,381.068909 
	C866.211365,380.926514 866.439880,380.857300 866.598145,380.966034 
z"/>
<path fill="#66C8B6" opacity="1.000000" stroke="none" 
	d="
M600.325317,697.159180 
	C601.458862,696.048157 602.907043,695.098816 605.033569,694.230591 
	C614.148682,697.605652 622.062622,696.006409 629.383850,691.299133 
	C643.605164,682.155334 657.885254,673.078979 671.755188,663.420654 
	C681.378357,656.719666 690.506042,649.271423 699.513672,641.748230 
	C701.681885,639.937317 702.496155,636.505310 703.933044,633.818787 
	C706.541260,632.158020 709.149414,630.497192 712.057739,628.735229 
	C712.443237,630.646790 713.390686,633.301147 712.457092,634.555359 
	C709.305420,638.789246 706.016296,643.247559 701.828125,646.325073 
	C685.680908,658.190491 669.283081,669.726929 652.739441,681.035950 
	C643.581421,687.296387 634.094971,693.115601 624.485779,698.664734 
	C616.460266,703.299194 608.331299,702.369019 600.325317,697.159180 
z"/>
<path fill="#5EB3A7" opacity="1.000000" stroke="none" 
	d="
M703.588257,633.899902 
	C702.496155,636.505310 701.681885,639.937317 699.513672,641.748230 
	C690.506042,649.271423 681.378357,656.719666 671.755188,663.420654 
	C657.885254,673.078979 643.605164,682.155334 629.383850,691.299133 
	C622.062622,696.006409 614.148682,697.605652 605.356140,694.154419 
	C607.037109,692.677917 609.073914,691.358826 611.836853,690.034424 
	C620.018066,691.857056 626.137451,688.125427 631.848328,684.548584 
	C647.232361,674.912964 662.422424,664.945129 677.353516,654.623047 
	C681.799316,651.549561 685.133606,646.868286 688.977173,642.923645 
	C690.155640,642.051208 691.334106,641.178833 692.753296,640.094360 
	C696.410583,637.915222 699.827026,635.948059 703.588257,633.899902 
z"/>
<path fill="#7FFEDE" opacity="1.000000" stroke="none" 
	d="
M583.698975,526.924194 
	C588.519226,529.931946 593.001892,532.875000 597.796997,535.987183 
	C596.056213,537.440186 594.002991,538.724121 591.232544,540.006226 
	C580.661255,534.091858 571.549866,535.895142 562.183350,541.769043 
	C548.894653,550.102661 535.072571,557.580505 521.666077,565.732666 
	C505.388824,575.630554 489.225800,585.722778 473.173065,595.980713 
	C464.492157,601.527954 462.952148,605.352295 465.051697,613.110413 
	C464.247498,613.844116 463.443329,614.577820 462.315308,615.421265 
	C430.074219,594.319336 398.138519,573.135315 366.249573,551.881165 
	C354.788940,544.242615 343.440887,536.435181 331.852814,528.410400 
	C332.438599,522.671326 333.859131,517.229675 333.884369,511.781586 
	C334.073761,470.896606 334.045990,430.010132 333.923492,389.124634 
	C333.905823,383.231476 333.018341,377.340942 332.805481,371.202515 
	C356.366577,385.396637 379.687683,399.785889 402.938232,414.288330 
	C460.991547,450.498840 519.012817,486.760712 577.380493,523.066711 
	C579.596497,524.374146 581.478943,525.616821 583.698975,526.924194 
z"/>
<path fill="#75E7CD" opacity="1.000000" stroke="none" 
	d="
M465.414337,613.082031 
	C462.952148,605.352295 464.492157,601.527954 473.173065,595.980713 
	C489.225800,585.722778 505.388824,575.630554 521.666077,565.732666 
	C535.072571,557.580505 548.894653,550.102661 562.183350,541.769043 
	C571.549866,535.895142 580.661255,534.091858 590.904297,540.078186 
	C590.674927,540.660278 590.056519,541.168579 589.221252,541.890137 
	C588.264160,542.403687 587.523987,542.704102 586.122192,542.889404 
	C583.090820,542.182068 580.739990,541.180908 578.347900,541.070374 
	C569.366272,540.655273 562.238037,545.800964 554.929016,549.812866 
	C542.059021,556.877075 529.448242,564.433655 516.926025,572.105774 
	C503.102020,580.575378 488.610016,588.120728 477.242462,600.137329 
	C474.877441,602.637390 473.357117,605.018860 474.171204,608.483887 
	C471.373138,610.007202 468.575073,611.530457 465.414337,613.082031 
z"/>
<path fill="#59A19A" opacity="1.000000" stroke="none" 
	d="
M688.630615,642.987183 
	C685.133606,646.868286 681.799316,651.549561 677.353516,654.623047 
	C662.422424,664.945129 647.232361,674.912964 631.848328,684.548584 
	C626.137451,688.125427 620.018066,691.857056 612.166931,689.966248 
	C622.927612,683.007812 634.059937,676.072021 645.247498,669.226624 
	C659.569702,660.463196 673.936401,651.772705 688.630615,642.987183 
z"/>
<path fill="#62AFA7" opacity="1.000000" stroke="none" 
	d="
M507.190430,589.680176 
	C503.250854,591.992126 499.512115,594.029663 495.428101,595.783508 
	C497.799744,592.962036 500.205902,589.936829 503.287872,587.971558 
	C515.931274,579.909302 528.664551,571.972229 541.596375,564.383911 
	C549.679321,559.640930 558.116516,555.481628 566.541199,551.359619 
	C568.056763,550.618103 570.284973,551.333130 572.184204,551.375671 
	C570.219604,552.639160 568.255005,553.902649 566.090698,555.406189 
	C561.965637,557.862854 558.040344,560.079468 553.891602,562.568237 
	C549.183899,565.346375 544.699585,567.852356 539.994934,570.627686 
	C534.235840,574.037476 528.697083,577.177917 522.935547,580.588379 
	C517.605591,583.707520 512.498413,586.556641 507.190430,589.680176 
z"/>
<path fill="#6CD3BE" opacity="1.000000" stroke="none" 
	d="
M474.471497,608.380615 
	C473.357117,605.018860 474.877441,602.637390 477.242462,600.137329 
	C488.610016,588.120728 503.102020,580.575378 516.926025,572.105774 
	C529.448242,564.433655 542.059021,556.877075 554.929016,549.812866 
	C562.238037,545.800964 569.366272,540.655273 578.347900,541.070374 
	C580.739990,541.180908 583.090820,542.182068 585.823853,542.941772 
	C584.046753,544.426208 581.906433,545.743164 579.342773,546.751709 
	C576.848450,546.172180 574.498230,545.135498 572.758057,545.770508 
	C567.052673,547.852417 561.568848,550.541687 555.646118,553.002380 
	C554.525024,553.669006 553.757812,554.330872 552.742920,554.993896 
	C552.495300,554.995056 552.000000,555.000000 551.646606,555.002625 
	C549.860474,556.002563 548.427795,556.999878 546.746948,557.998657 
	C546.498779,558.000000 546.002441,558.004883 545.662109,558.037354 
	C544.544250,559.043884 543.766785,560.017944 542.619629,560.993164 
	C540.833496,561.663818 539.416931,562.333130 537.653931,563.034241 
	C536.202576,564.042419 535.097778,565.018738 533.745361,565.996704 
	C533.497681,565.998413 533.002441,566.002441 532.647949,566.036377 
	C530.527405,567.379456 528.761292,568.688538 526.746826,569.998230 
	C526.498535,569.998901 526.001953,570.002441 525.649658,570.035583 
	C523.860962,571.375977 522.424561,572.683289 520.657593,573.992493 
	C519.886230,573.998718 519.445496,574.003052 518.653442,574.041016 
	C516.200012,575.715698 514.097839,577.356628 511.669952,579.025879 
	C510.230286,579.703735 509.116211,580.353210 507.681152,581.042603 
	C506.904358,581.720093 506.448517,582.357605 505.674164,583.020386 
	C504.571533,583.366150 503.787476,583.686707 502.682129,584.046143 
	C501.906860,584.723328 501.452820,585.361633 500.889771,586.218018 
	C500.580963,586.707764 500.320282,586.894470 499.644836,587.001343 
	C498.525055,587.669373 497.759125,588.332275 496.745300,588.996582 
	C496.497406,588.997986 496.001587,589.002441 495.661133,589.035400 
	C494.545898,590.044739 493.771118,591.021179 492.829346,592.242188 
	C492.108826,592.658691 491.555298,592.830566 490.647278,593.038452 
	C489.192780,594.713867 488.092804,596.353271 486.996399,597.996338 
	C487.000000,598.000000 486.992340,597.992798 486.638611,598.028870 
	C484.868591,598.883972 483.384552,599.617371 482.114288,600.621155 
	C481.938141,600.760376 482.817688,602.235413 483.208557,603.092102 
	C480.942047,604.550293 478.675537,606.008423 476.205139,607.733582 
	C475.591400,608.092896 475.181580,608.185120 474.471497,608.380615 
z"/>
<path fill="#64C0B1" opacity="1.000000" stroke="none" 
	d="
M503.003418,584.007324 
	C503.787476,583.686707 504.571533,583.366150 505.995911,582.981323 
	C507.091522,582.278931 507.546844,581.640808 508.002136,581.002686 
	C509.116211,580.353210 510.230286,579.703735 512.026367,578.991638 
	C514.807190,577.288513 516.905945,575.647949 519.004700,574.007324 
	C519.445496,574.003052 519.886230,573.998718 521.005554,573.961548 
	C523.123352,572.619995 524.562622,571.311218 526.001953,570.002441 
	C526.001953,570.002441 526.498535,569.998901 527.113281,569.995056 
	C529.486206,568.661621 531.244324,567.332031 533.002441,566.002441 
	C533.002441,566.002441 533.497681,565.998413 534.092651,565.965820 
	C535.791870,564.956299 536.896179,563.979370 538.000427,563.002441 
	C539.416931,562.333130 540.833496,561.663818 542.961060,560.962463 
	C544.448914,559.955261 545.225647,558.980042 546.002441,558.004883 
	C546.002441,558.004883 546.498779,558.000000 547.100891,557.996826 
	C549.135376,556.995728 550.567688,555.997864 552.000000,555.000000 
	C552.000000,555.000000 552.495300,554.995056 553.065552,554.971069 
	C554.423828,554.297241 555.211853,553.647400 555.999939,552.997559 
	C561.568848,550.541687 567.052673,547.852417 572.758057,545.770508 
	C574.498230,545.135498 576.848450,546.172180 579.003296,546.837891 
	C578.151367,547.924866 577.215454,548.617249 576.109802,549.549683 
	C574.901855,550.236694 573.863647,550.683716 572.504883,551.253174 
	C570.284973,551.333130 568.056763,550.618103 566.541199,551.359619 
	C558.116516,555.481628 549.679321,559.640930 541.596375,564.383911 
	C528.664551,571.972229 515.931274,579.909302 503.287872,587.971558 
	C500.205902,589.936829 497.799744,592.962036 495.077515,595.864990 
	C494.134216,596.897217 493.196228,597.564209 492.085693,598.466187 
	C490.489777,599.390747 489.066345,600.080505 487.318298,600.487427 
	C486.993256,599.467407 486.992798,598.730103 486.992340,597.992798 
	C486.992340,597.992798 487.000000,598.000000 487.339783,597.946045 
	C488.786957,596.262146 489.894379,594.632324 491.001770,593.002441 
	C491.555298,592.830566 492.108826,592.658691 493.170105,592.209351 
	C494.452393,590.955383 495.226990,589.978882 496.001587,589.002441 
	C496.001587,589.002441 496.497406,588.997986 497.067627,588.972900 
	C498.424835,588.297180 499.211761,587.646667 499.998688,586.996094 
	C500.320282,586.894470 500.580963,586.707764 501.210388,586.177246 
	C502.094543,585.281372 502.548981,584.644348 503.003418,584.007324 
z"/>
<path fill="#66C7B5" opacity="1.000000" stroke="none" 
	d="
M486.638611,598.028870 
	C486.992798,598.730103 486.993256,599.467407 486.989410,600.573242 
	C485.936859,601.631531 484.888611,602.321228 483.524475,603.051514 
	C482.817688,602.235413 481.938141,600.760376 482.114288,600.621155 
	C483.384552,599.617371 484.868591,598.883972 486.638611,598.028870 
z"/>
<path fill="#66C7B5" opacity="1.000000" stroke="none" 
	d="
M518.653442,574.041016 
	C516.905945,575.647949 514.807190,577.288513 512.351990,578.963318 
	C514.097839,577.356628 516.200012,575.715698 518.653442,574.041016 
z"/>
<path fill="#66C7B5" opacity="1.000000" stroke="none" 
	d="
M490.647278,593.038452 
	C489.894379,594.632324 488.786957,596.262146 487.336182,597.942383 
	C488.092804,596.353271 489.192780,594.713867 490.647278,593.038452 
z"/>
<path fill="#66C7B5" opacity="1.000000" stroke="none" 
	d="
M532.647949,566.036377 
	C531.244324,567.332031 529.486206,568.661621 527.361572,569.994385 
	C528.761292,568.688538 530.527405,567.379456 532.647949,566.036377 
z"/>
<path fill="#66C7B5" opacity="1.000000" stroke="none" 
	d="
M525.649658,570.035522 
	C524.562622,571.311218 523.123352,572.619995 521.336182,573.959717 
	C522.424561,572.683289 523.860962,571.375977 525.649658,570.035522 
z"/>
<path fill="#66C7B5" opacity="1.000000" stroke="none" 
	d="
M551.646606,555.002625 
	C550.567688,555.997864 549.135376,556.995728 547.349060,557.995422 
	C548.427795,556.999878 549.860474,556.002563 551.646606,555.002625 
z"/>
<path fill="#66C7B5" opacity="1.000000" stroke="none" 
	d="
M537.653931,563.034241 
	C536.896179,563.979370 535.791870,564.956299 534.340271,565.964111 
	C535.097778,565.018738 536.202576,564.042419 537.653931,563.034241 
z"/>
<path fill="#66C7B5" opacity="1.000000" stroke="none" 
	d="
M495.661133,589.035400 
	C495.226990,589.978882 494.452393,590.955383 493.337067,591.964722 
	C493.771118,591.021179 494.545898,590.044739 495.661133,589.035400 
z"/>
<path fill="#66C7B5" opacity="1.000000" stroke="none" 
	d="
M545.662109,558.037354 
	C545.225647,558.980042 544.448914,559.955261 543.330688,560.961182 
	C543.766785,560.017944 544.544250,559.043884 545.662109,558.037354 
z"/>
<path fill="#66C7B5" opacity="1.000000" stroke="none" 
	d="
M555.646118,553.002380 
	C555.211853,553.647400 554.423828,554.297241 553.313171,554.969849 
	C553.757812,554.330872 554.525024,553.669006 555.646118,553.002380 
z"/>
<path fill="#66C7B5" opacity="1.000000" stroke="none" 
	d="
M499.644836,587.001343 
	C499.211761,587.646667 498.424835,588.297180 497.315552,588.971436 
	C497.759125,588.332275 498.525055,587.669373 499.644836,587.001343 
z"/>
<path fill="#66C7B5" opacity="1.000000" stroke="none" 
	d="
M507.681183,581.042664 
	C507.546844,581.640808 507.091522,582.278931 506.314453,582.956055 
	C506.448517,582.357605 506.904358,581.720093 507.681183,581.042664 
z"/>
<path fill="#66C7B5" opacity="1.000000" stroke="none" 
	d="
M502.682129,584.046143 
	C502.548981,584.644348 502.094543,585.281372 501.319427,585.959229 
	C501.452820,585.361633 501.906860,584.723328 502.682129,584.046143 
z"/>
</svg>